<mxfile host="app.diagrams.net" agent="Mozilla/5.0 (Windows NT 10.0; Win64; x64) AppleWebKit/537.36 (KHTML, like Gecko) Chrome/126.0.0.0 Safari/537.36" version="25.0.1">
  <diagram name="第 1 页" id="gJfY8LNa73RxEveA1br5">
    <mxGraphModel dx="1259" dy="1149" grid="0" gridSize="10" guides="1" tooltips="1" connect="1" arrows="1" fold="1" page="0" pageScale="1" pageWidth="827" pageHeight="1169" math="0" shadow="0">
      <root>
        <mxCell id="0" />
        <mxCell id="1" parent="0" />
        <mxCell id="wxIHJAAadrwlMYFSto1u-54" value="" style="rounded=1;whiteSpace=wrap;html=1;" vertex="1" parent="1">
          <mxGeometry x="1373" y="204" width="197" height="375" as="geometry" />
        </mxCell>
        <mxCell id="wxIHJAAadrwlMYFSto1u-48" value="" style="group" vertex="1" connectable="0" parent="1">
          <mxGeometry x="1802" y="323" width="200" height="253" as="geometry" />
        </mxCell>
        <mxCell id="wxIHJAAadrwlMYFSto1u-46" value="" style="rounded=1;whiteSpace=wrap;html=1;" vertex="1" parent="wxIHJAAadrwlMYFSto1u-48">
          <mxGeometry width="200" height="253" as="geometry" />
        </mxCell>
        <mxCell id="wxIHJAAadrwlMYFSto1u-47" value="物联网IOT" style="text;html=1;align=center;verticalAlign=middle;whiteSpace=wrap;rounded=0;fontStyle=1" vertex="1" parent="wxIHJAAadrwlMYFSto1u-48">
          <mxGeometry x="70" width="60" height="27.10714285714286" as="geometry" />
        </mxCell>
        <mxCell id="wxIHJAAadrwlMYFSto1u-49" value="&lt;p class=&quot;MsoNormal&quot;&gt;/vehicle.list&lt;br&gt;&lt;/p&gt;" style="rounded=1;whiteSpace=wrap;html=1;fillColor=#dae8fc;strokeColor=#6c8ebf;gradientColor=#7ea6e0;" vertex="1" parent="wxIHJAAadrwlMYFSto1u-48">
          <mxGeometry x="32.5" y="43.95647252747253" width="135" height="46.08214285714286" as="geometry" />
        </mxCell>
        <mxCell id="wxIHJAAadrwlMYFSto1u-52" value="&lt;p style=&quot;text-align: left;&quot; class=&quot;MsoNormal&quot;&gt;/farmerAutopilotOrder.create&lt;br&gt;&lt;/p&gt;" style="rounded=1;whiteSpace=wrap;html=1;fillColor=#dae8fc;strokeColor=#6c8ebf;gradientColor=#7ea6e0;" vertex="1" parent="wxIHJAAadrwlMYFSto1u-48">
          <mxGeometry x="22" y="179.95632417582422" width="168.25" height="46.08214285714286" as="geometry" />
        </mxCell>
        <mxCell id="wxIHJAAadrwlMYFSto1u-40" value="" style="rounded=1;whiteSpace=wrap;html=1;" vertex="1" parent="1">
          <mxGeometry x="1602.5" y="204" width="176.5" height="373" as="geometry" />
        </mxCell>
        <mxCell id="eqAFOOtLYbi2PUEckz74-17" value="" style="rounded=1;whiteSpace=wrap;html=1;" parent="1" vertex="1">
          <mxGeometry x="73" y="-205" width="760" height="779" as="geometry" />
        </mxCell>
        <mxCell id="eqAFOOtLYbi2PUEckz74-30" value="种植品种" style="rounded=1;whiteSpace=wrap;html=1;fontSize=15;fillColor=#f8cecc;gradientColor=#ea6b66;strokeColor=#b85450;" parent="1" vertex="1">
          <mxGeometry x="302" y="70" width="199" height="53" as="geometry" />
        </mxCell>
        <mxCell id="eqAFOOtLYbi2PUEckz74-27" value="种植品种" style="rounded=1;whiteSpace=wrap;html=1;fontSize=15;fillColor=#f8cecc;gradientColor=#ea6b66;strokeColor=#b85450;" parent="1" vertex="1">
          <mxGeometry x="292" y="60" width="199" height="53" as="geometry" />
        </mxCell>
        <mxCell id="eqAFOOtLYbi2PUEckz74-21" style="edgeStyle=orthogonalEdgeStyle;rounded=1;orthogonalLoop=1;jettySize=auto;html=1;exitX=1;exitY=0.5;exitDx=0;exitDy=0;entryX=1;entryY=0.5;entryDx=0;entryDy=0;curved=0;strokeWidth=2;fontSize=9;" parent="1" source="eqAFOOtLYbi2PUEckz74-1" target="eqAFOOtLYbi2PUEckz74-10" edge="1">
          <mxGeometry relative="1" as="geometry">
            <Array as="points">
              <mxPoint x="789" y="33" />
              <mxPoint x="789" y="379" />
            </Array>
          </mxGeometry>
        </mxCell>
        <mxCell id="eqAFOOtLYbi2PUEckz74-1" value="" style="rounded=1;whiteSpace=wrap;html=1;" parent="1" vertex="1">
          <mxGeometry x="518" y="-123" width="242" height="311" as="geometry" />
        </mxCell>
        <mxCell id="eqAFOOtLYbi2PUEckz74-2" value="&lt;b&gt;&lt;font style=&quot;font-size: 20px;&quot;&gt;农事记录&lt;/font&gt;&lt;/b&gt;" style="text;html=1;align=center;verticalAlign=middle;whiteSpace=wrap;rounded=0;" parent="1" vertex="1">
          <mxGeometry x="580.5" y="-114" width="120" height="30" as="geometry" />
        </mxCell>
        <mxCell id="eqAFOOtLYbi2PUEckz74-8" style="edgeStyle=orthogonalEdgeStyle;rounded=0;orthogonalLoop=1;jettySize=auto;html=1;exitX=0.5;exitY=1;exitDx=0;exitDy=0;" parent="1" source="eqAFOOtLYbi2PUEckz74-5" target="eqAFOOtLYbi2PUEckz74-6" edge="1">
          <mxGeometry relative="1" as="geometry" />
        </mxCell>
        <mxCell id="eqAFOOtLYbi2PUEckz74-5" value="新建农事" style="rounded=1;whiteSpace=wrap;html=1;fontSize=15;fillColor=#d5e8d4;gradientColor=#97d077;strokeColor=#82b366;" parent="1" vertex="1">
          <mxGeometry x="541" y="-79" width="199" height="53" as="geometry" />
        </mxCell>
        <mxCell id="eqAFOOtLYbi2PUEckz74-9" style="edgeStyle=orthogonalEdgeStyle;rounded=0;orthogonalLoop=1;jettySize=auto;html=1;exitX=0.5;exitY=1;exitDx=0;exitDy=0;" parent="1" source="eqAFOOtLYbi2PUEckz74-6" target="eqAFOOtLYbi2PUEckz74-7" edge="1">
          <mxGeometry relative="1" as="geometry" />
        </mxCell>
        <mxCell id="eqAFOOtLYbi2PUEckz74-6" value="编辑农事" style="rounded=1;whiteSpace=wrap;html=1;fontSize=15;fillColor=#dae8fc;gradientColor=#7ea6e0;strokeColor=#6c8ebf;" parent="1" vertex="1">
          <mxGeometry x="541" y="14" width="199" height="53" as="geometry" />
        </mxCell>
        <mxCell id="eqAFOOtLYbi2PUEckz74-7" value="按条件筛选并导出农事表" style="rounded=1;whiteSpace=wrap;html=1;fontSize=15;fillColor=#ffcd28;gradientColor=#ffa500;strokeColor=#d79b00;" parent="1" vertex="1">
          <mxGeometry x="541" y="107" width="199" height="53" as="geometry" />
        </mxCell>
        <mxCell id="eqAFOOtLYbi2PUEckz74-18" value="&lt;b&gt;&lt;font&gt;农事操作功能&lt;/font&gt;&lt;/b&gt;" style="text;html=1;align=center;verticalAlign=middle;whiteSpace=wrap;rounded=0;fontSize=34;" parent="1" vertex="1">
          <mxGeometry x="270.75" y="-182" width="318.5" height="30" as="geometry" />
        </mxCell>
        <mxCell id="eqAFOOtLYbi2PUEckz74-19" value="" style="group" parent="1" vertex="1" connectable="0">
          <mxGeometry x="518" y="224" width="242" height="311" as="geometry" />
        </mxCell>
        <mxCell id="eqAFOOtLYbi2PUEckz74-10" value="" style="rounded=1;whiteSpace=wrap;html=1;movable=1;resizable=1;rotatable=1;deletable=1;editable=1;locked=0;connectable=1;" parent="eqAFOOtLYbi2PUEckz74-19" vertex="1">
          <mxGeometry width="242" height="311" as="geometry" />
        </mxCell>
        <mxCell id="eqAFOOtLYbi2PUEckz74-11" value="&lt;b&gt;&lt;font style=&quot;font-size: 20px;&quot;&gt;农事安排&lt;/font&gt;&lt;/b&gt;" style="text;html=1;align=center;verticalAlign=middle;whiteSpace=wrap;rounded=0;movable=1;resizable=1;rotatable=1;deletable=1;editable=1;locked=0;connectable=1;" parent="eqAFOOtLYbi2PUEckz74-19" vertex="1">
          <mxGeometry x="62.5" y="9" width="120" height="30" as="geometry" />
        </mxCell>
        <mxCell id="eqAFOOtLYbi2PUEckz74-13" value="按年份筛选种植季" style="rounded=1;whiteSpace=wrap;html=1;fontSize=15;fillColor=#d5e8d4;gradientColor=#97d077;strokeColor=#82b366;movable=1;resizable=1;rotatable=1;deletable=1;editable=1;locked=0;connectable=1;" parent="eqAFOOtLYbi2PUEckz74-19" vertex="1">
          <mxGeometry x="23" y="44" width="199" height="53" as="geometry" />
        </mxCell>
        <mxCell id="eqAFOOtLYbi2PUEckz74-15" value="查看每个种植季下的农事" style="rounded=1;whiteSpace=wrap;html=1;fontSize=15;fillColor=#dae8fc;gradientColor=#7ea6e0;strokeColor=#6c8ebf;movable=1;resizable=1;rotatable=1;deletable=1;editable=1;locked=0;connectable=1;" parent="eqAFOOtLYbi2PUEckz74-19" vertex="1">
          <mxGeometry x="23" y="137" width="199" height="53" as="geometry" />
        </mxCell>
        <mxCell id="eqAFOOtLYbi2PUEckz74-16" value="在地图中查看有关农场的农事" style="rounded=1;whiteSpace=wrap;html=1;fontSize=15;fillColor=#ffcd28;gradientColor=#ffa500;strokeColor=#d79b00;movable=1;resizable=1;rotatable=1;deletable=1;editable=1;locked=0;connectable=1;" parent="eqAFOOtLYbi2PUEckz74-19" vertex="1">
          <mxGeometry x="23" y="230" width="199" height="53" as="geometry" />
        </mxCell>
        <mxCell id="eqAFOOtLYbi2PUEckz74-22" value="任务状态" style="text;html=1;align=center;verticalAlign=middle;whiteSpace=wrap;rounded=0;fontStyle=1;fontSize=20;" parent="1" vertex="1">
          <mxGeometry x="108" y="-79" width="151" height="30" as="geometry" />
        </mxCell>
        <mxCell id="eqAFOOtLYbi2PUEckz74-26" value="种植品种" style="rounded=1;whiteSpace=wrap;html=1;fontSize=15;fillColor=#f8cecc;gradientColor=#ea6b66;strokeColor=#b85450;" parent="1" vertex="1">
          <mxGeometry x="282" y="50" width="199" height="53" as="geometry" />
        </mxCell>
        <mxCell id="eqAFOOtLYbi2PUEckz74-25" value="计划时间" style="rounded=1;whiteSpace=wrap;html=1;fontSize=15;fillColor=#f8cecc;gradientColor=#ea6b66;strokeColor=#b85450;" parent="1" vertex="1">
          <mxGeometry x="237" y="11" width="199" height="53" as="geometry" />
        </mxCell>
        <mxCell id="eqAFOOtLYbi2PUEckz74-24" value="片区进度" style="rounded=1;whiteSpace=wrap;html=1;fontSize=15;fillColor=#f8cecc;gradientColor=#ea6b66;strokeColor=#b85450;" parent="1" vertex="1">
          <mxGeometry x="186" y="-29" width="199" height="53" as="geometry" />
        </mxCell>
        <mxCell id="eqAFOOtLYbi2PUEckz74-31" value="每日进展" style="text;html=1;align=center;verticalAlign=middle;whiteSpace=wrap;rounded=0;fontStyle=1;fontSize=20;" parent="1" vertex="1">
          <mxGeometry x="108" y="235" width="151" height="30" as="geometry" />
        </mxCell>
        <mxCell id="eqAFOOtLYbi2PUEckz74-35" value="种植品种" style="rounded=1;whiteSpace=wrap;html=1;fontSize=15;fillColor=#f5f5f5;gradientColor=#b3b3b3;strokeColor=#666666;" parent="1" vertex="1">
          <mxGeometry x="297" y="379" width="199" height="53" as="geometry" />
        </mxCell>
        <mxCell id="eqAFOOtLYbi2PUEckz74-36" value="种植品种" style="rounded=1;whiteSpace=wrap;html=1;fontSize=15;fillColor=#f5f5f5;gradientColor=#b3b3b3;strokeColor=#666666;" parent="1" vertex="1">
          <mxGeometry x="287" y="369" width="199" height="53" as="geometry" />
        </mxCell>
        <mxCell id="eqAFOOtLYbi2PUEckz74-37" value="上报人" style="rounded=1;whiteSpace=wrap;html=1;fontSize=15;fillColor=#f5f5f5;gradientColor=#b3b3b3;strokeColor=#666666;" parent="1" vertex="1">
          <mxGeometry x="277" y="359" width="199" height="53" as="geometry" />
        </mxCell>
        <mxCell id="eqAFOOtLYbi2PUEckz74-38" value="农事环节" style="rounded=1;whiteSpace=wrap;html=1;fontSize=15;fillColor=#f5f5f5;gradientColor=#b3b3b3;strokeColor=#666666;" parent="1" vertex="1">
          <mxGeometry x="232" y="320" width="199" height="53" as="geometry" />
        </mxCell>
        <mxCell id="eqAFOOtLYbi2PUEckz74-39" value="片区" style="rounded=1;whiteSpace=wrap;html=1;fontSize=15;fillColor=#f5f5f5;gradientColor=#b3b3b3;strokeColor=#666666;" parent="1" vertex="1">
          <mxGeometry x="181" y="280" width="199" height="53" as="geometry" />
        </mxCell>
        <mxCell id="wxIHJAAadrwlMYFSto1u-51" style="edgeStyle=orthogonalEdgeStyle;rounded=0;orthogonalLoop=1;jettySize=auto;html=1;exitX=1;exitY=0.5;exitDx=0;exitDy=0;" edge="1" parent="1" source="wxIHJAAadrwlMYFSto1u-29" target="wxIHJAAadrwlMYFSto1u-49">
          <mxGeometry relative="1" as="geometry" />
        </mxCell>
        <mxCell id="wxIHJAAadrwlMYFSto1u-29" value="&lt;p class=&quot;MsoNormal&quot;&gt;&lt;span style=&quot;mso-spacerun:&#39;yes&#39;;font-family:微软雅黑;mso-bidi-font-family:&#39;Times New Roman&#39;;&lt;br/&gt;mso-font-kerning:1.0000pt;&quot;&gt;/getVehicleList&lt;/span&gt;&lt;/p&gt;" style="rounded=1;whiteSpace=wrap;html=1;fillColor=#dae8fc;strokeColor=#6c8ebf;gradientColor=#7ea6e0;" vertex="1" parent="1">
          <mxGeometry x="1625" y="364.5" width="135" height="51" as="geometry" />
        </mxCell>
        <mxCell id="wxIHJAAadrwlMYFSto1u-32" style="edgeStyle=orthogonalEdgeStyle;rounded=0;orthogonalLoop=1;jettySize=auto;html=1;exitX=0.5;exitY=1;exitDx=0;exitDy=0;" edge="1" parent="1" source="wxIHJAAadrwlMYFSto1u-30" target="wxIHJAAadrwlMYFSto1u-31">
          <mxGeometry relative="1" as="geometry" />
        </mxCell>
        <mxCell id="wxIHJAAadrwlMYFSto1u-45" style="edgeStyle=orthogonalEdgeStyle;rounded=0;orthogonalLoop=1;jettySize=auto;html=1;exitX=1;exitY=0.5;exitDx=0;exitDy=0;entryX=0;entryY=0.5;entryDx=0;entryDy=0;" edge="1" parent="1" source="wxIHJAAadrwlMYFSto1u-30" target="wxIHJAAadrwlMYFSto1u-44">
          <mxGeometry relative="1" as="geometry" />
        </mxCell>
        <mxCell id="wxIHJAAadrwlMYFSto1u-30" value="调取地块数据&lt;div&gt;选取需要平整的地块&lt;/div&gt;" style="rounded=1;whiteSpace=wrap;html=1;fillColor=#f8cecc;gradientColor=#ea6b66;strokeColor=#b85450;" vertex="1" parent="1">
          <mxGeometry x="1398" y="248.5" width="140" height="44" as="geometry" />
        </mxCell>
        <mxCell id="wxIHJAAadrwlMYFSto1u-34" style="edgeStyle=orthogonalEdgeStyle;rounded=0;orthogonalLoop=1;jettySize=auto;html=1;exitX=0.5;exitY=1;exitDx=0;exitDy=0;entryX=0.5;entryY=0;entryDx=0;entryDy=0;" edge="1" parent="1" source="wxIHJAAadrwlMYFSto1u-31" target="wxIHJAAadrwlMYFSto1u-33">
          <mxGeometry relative="1" as="geometry" />
        </mxCell>
        <mxCell id="wxIHJAAadrwlMYFSto1u-35" style="edgeStyle=orthogonalEdgeStyle;rounded=0;orthogonalLoop=1;jettySize=auto;html=1;exitX=1;exitY=0.5;exitDx=0;exitDy=0;entryX=0;entryY=0.5;entryDx=0;entryDy=0;" edge="1" parent="1" source="wxIHJAAadrwlMYFSto1u-31" target="wxIHJAAadrwlMYFSto1u-29">
          <mxGeometry relative="1" as="geometry" />
        </mxCell>
        <mxCell id="wxIHJAAadrwlMYFSto1u-31" value="农机调度" style="rounded=1;whiteSpace=wrap;html=1;fillColor=#f8cecc;gradientColor=#ea6b66;strokeColor=#b85450;" vertex="1" parent="1">
          <mxGeometry x="1398" y="368" width="140" height="44" as="geometry" />
        </mxCell>
        <mxCell id="wxIHJAAadrwlMYFSto1u-38" style="edgeStyle=orthogonalEdgeStyle;rounded=0;orthogonalLoop=1;jettySize=auto;html=1;exitX=1;exitY=0.5;exitDx=0;exitDy=0;entryX=0;entryY=0.5;entryDx=0;entryDy=0;" edge="1" parent="1" source="wxIHJAAadrwlMYFSto1u-33" target="wxIHJAAadrwlMYFSto1u-37">
          <mxGeometry relative="1" as="geometry" />
        </mxCell>
        <mxCell id="wxIHJAAadrwlMYFSto1u-33" value="创建调度任务" style="rounded=1;whiteSpace=wrap;html=1;fillColor=#f8cecc;gradientColor=#ea6b66;strokeColor=#b85450;" vertex="1" parent="1">
          <mxGeometry x="1398" y="504" width="140" height="44" as="geometry" />
        </mxCell>
        <mxCell id="wxIHJAAadrwlMYFSto1u-53" style="edgeStyle=orthogonalEdgeStyle;rounded=0;orthogonalLoop=1;jettySize=auto;html=1;exitX=1;exitY=0.5;exitDx=0;exitDy=0;" edge="1" parent="1" source="wxIHJAAadrwlMYFSto1u-37" target="wxIHJAAadrwlMYFSto1u-52">
          <mxGeometry relative="1" as="geometry" />
        </mxCell>
        <mxCell id="wxIHJAAadrwlMYFSto1u-37" value="&lt;p class=&quot;MsoNormal&quot;&gt;&lt;span style=&quot;text-align: left;&quot;&gt;/createAutopilotWork&lt;/span&gt;&lt;br&gt;&lt;/p&gt;" style="rounded=1;whiteSpace=wrap;html=1;fillColor=#dae8fc;strokeColor=#6c8ebf;gradientColor=#7ea6e0;" vertex="1" parent="1">
          <mxGeometry x="1625" y="500.5" width="135" height="51" as="geometry" />
        </mxCell>
        <mxCell id="wxIHJAAadrwlMYFSto1u-41" value="PUB" style="text;html=1;align=center;verticalAlign=middle;whiteSpace=wrap;rounded=0;fontStyle=1" vertex="1" parent="1">
          <mxGeometry x="1660.75" y="213" width="60" height="30" as="geometry" />
        </mxCell>
        <mxCell id="wxIHJAAadrwlMYFSto1u-58" style="edgeStyle=orthogonalEdgeStyle;rounded=0;orthogonalLoop=1;jettySize=auto;html=1;exitX=1;exitY=0.5;exitDx=0;exitDy=0;entryX=0;entryY=0.5;entryDx=0;entryDy=0;" edge="1" parent="1" source="wxIHJAAadrwlMYFSto1u-44" target="wxIHJAAadrwlMYFSto1u-56">
          <mxGeometry relative="1" as="geometry" />
        </mxCell>
        <mxCell id="wxIHJAAadrwlMYFSto1u-44" value="&lt;p class=&quot;MsoNormal&quot;&gt;&lt;span style=&quot;mso-spacerun:&#39;yes&#39;;font-family:微软雅黑;mso-bidi-font-family:&#39;Times New Roman&#39;;&lt;br/&gt;mso-font-kerning:1.0000pt;&quot;&gt;/getFarmingRecommend&lt;/span&gt;&lt;/p&gt;" style="rounded=1;whiteSpace=wrap;html=1;fillColor=#dae8fc;strokeColor=#6c8ebf;gradientColor=#7ea6e0;" vertex="1" parent="1">
          <mxGeometry x="1617" y="245" width="151" height="51" as="geometry" />
        </mxCell>
        <mxCell id="wxIHJAAadrwlMYFSto1u-55" value="平地模块" style="text;html=1;align=center;verticalAlign=middle;whiteSpace=wrap;rounded=0;fontStyle=1" vertex="1" parent="1">
          <mxGeometry x="1438" y="210.5" width="60" height="30" as="geometry" />
        </mxCell>
        <mxCell id="wxIHJAAadrwlMYFSto1u-56" value="&lt;p class=&quot;MsoNormal&quot;&gt;&lt;font style=&quot;font-size: 11px;&quot;&gt;ag_calendar_area_farming_operation&lt;/font&gt;&lt;/p&gt;" style="rounded=1;whiteSpace=wrap;html=1;fillColor=#f5f5f5;gradientColor=#b3b3b3;strokeColor=#666666;" vertex="1" parent="1">
          <mxGeometry x="1806" y="240.5" width="193" height="60" as="geometry" />
        </mxCell>
        <mxCell id="wxIHJAAadrwlMYFSto1u-57" value="DB" style="text;html=1;align=center;verticalAlign=middle;whiteSpace=wrap;rounded=0;fontStyle=1" vertex="1" parent="1">
          <mxGeometry x="1872" y="210.5" width="60" height="30" as="geometry" />
        </mxCell>
        <mxCell id="wxIHJAAadrwlMYFSto1u-59" value="选择农机" style="text;html=1;align=center;verticalAlign=middle;whiteSpace=wrap;rounded=0;" vertex="1" parent="1">
          <mxGeometry x="1472" y="440" width="60" height="30" as="geometry" />
        </mxCell>
        <mxCell id="wxIHJAAadrwlMYFSto1u-60" value="确认面积、高差" style="text;html=1;align=center;verticalAlign=middle;whiteSpace=wrap;rounded=0;" vertex="1" parent="1">
          <mxGeometry x="1472" y="315" width="60" height="30" as="geometry" />
        </mxCell>
        <mxCell id="wxIHJAAadrwlMYFSto1u-65" style="edgeStyle=orthogonalEdgeStyle;rounded=0;orthogonalLoop=1;jettySize=auto;html=1;exitX=0;exitY=0.25;exitDx=0;exitDy=0;entryX=1;entryY=0.5;entryDx=0;entryDy=0;" edge="1" parent="1" source="wxIHJAAadrwlMYFSto1u-62" target="wxIHJAAadrwlMYFSto1u-49">
          <mxGeometry relative="1" as="geometry" />
        </mxCell>
        <mxCell id="wxIHJAAadrwlMYFSto1u-66" style="edgeStyle=orthogonalEdgeStyle;rounded=0;orthogonalLoop=1;jettySize=auto;html=1;exitX=1;exitY=0.5;exitDx=0;exitDy=0;entryX=0;entryY=0.75;entryDx=0;entryDy=0;" edge="1" parent="1" source="wxIHJAAadrwlMYFSto1u-52" target="wxIHJAAadrwlMYFSto1u-62">
          <mxGeometry relative="1" as="geometry" />
        </mxCell>
        <mxCell id="wxIHJAAadrwlMYFSto1u-67" value="" style="group" vertex="1" connectable="0" parent="1">
          <mxGeometry x="2045" y="386" width="187" height="154" as="geometry" />
        </mxCell>
        <mxCell id="wxIHJAAadrwlMYFSto1u-62" value="" style="rounded=1;whiteSpace=wrap;html=1;" vertex="1" parent="wxIHJAAadrwlMYFSto1u-67">
          <mxGeometry width="187" height="154" as="geometry" />
        </mxCell>
        <mxCell id="wxIHJAAadrwlMYFSto1u-63" value="" style="shape=image;verticalLabelPosition=bottom;labelBackgroundColor=default;verticalAlign=top;aspect=fixed;imageAspect=0;image=data:image/png,iVBORw0KGgoAAAANSUhEUgAAAR4AAADRCAIAAACVYkpUAAAgAElEQVR4Aex9B1cbx/r3+wXsJDfJTdyDeqEXgXrvEr13jBBNhd6LKQZsejHG4N57i+NuEzs9vum56Tc3yU2vBr7Ae2ZHDMtKyIDB5R+dM0dndrQ7Ozszv3lmnvr/VqzieZKnBzw9sOQ98P+WvEZPhZ4e8PTAilU8D7Q8RNvTA8vSAx5oLUu3epZtTw94oOWBlqcHlqUHPNBalm71rNmeHvBAywMtTw8sSw94oLUs3epZsz094IGWB1qeHliWHvBAa1m61bNme3rAAy0PtDw9sCw94IHWsnSrZ8329IAHWh5oeXpgWXrAA61l6VbPmu3pAQ+0Fgatf5AUa/wT14eawi19ntnj6QE3PeCB1gKg9U9WLFVZyY4dYMcO0DSNz9Aj3PSs56+/eQ94oLUAaDF0rayobggtVmQXWVb5N589ns930wMeaM0XWk9ukG8IzWLHDrCie9gx/eyY/rWBKW561vPX37wHPNCaL7T81FaGzMqOHWBGdjIMm9kxfRRlzZPrJX/zCeT5/Ll6wAOt+UJrbWguXbMJ7gbhL8PQ+g8v5Vw96yn/m/eAB1rzhdaKVbxnGRE0VQ0rpo8dO8AwtFGUdU9ukP3NJ5Dn8+fqgb8RtJ5aL3qeprr/5MXNFmb0MvgpsKpnyfK5OtdT/nfugf870Fq5Vrieb0WJJKveILDT9e0o+RgbtEV7NdadGtsubdFelDS23arcAVXugMY6hgphRm3ZocodIBSG5hz3SRxRWPeBR2y7RJl96BUw42gDZyOdm/R3nlt/829/nKC1cjX/ifVSW/8Z28BZZuRWiqyMqqpFiaauD9p4nGe9jk/B2Se4lqt8202e9fr0MWkwLP8lvn0cJv/UvfB+vn3c8aDtBvxr+v6BwMzDPgkj3vHbQIobQuXs2AFO7nlHefw2duygd9xQSM4ZWA+8jaqqpanrqapakiCXxDdri/baBs870sDZ9X5RT26QPblB9sQ68RPrxH/zufh/7PMfJ2i9IC71T9tH1zYyjO2BmYfxUxzk4waDNh7DFwZtPBacfZxnuxFWcCk4+7hv0mhw9nGO+SzCFd8+zjGfg48EZBxkxw54xw35Jo0FZh4JzDyCqvJNdpQEZh7xT92DymEm2HTKgdK0vUFZR4KyjsJy77ih4OzjwdnHYYlf8k527CD8yzd5p3f8NoaxnR3Th3/XOm7BOm7B6sCM/2OT7O/5OY8NtFauEfil7PZL2Q1nJ9920z9tH8y7/A3MPIIgFJJzmh074J+2D5VgmZugEgwqIeYzjhJAzW7y7eMQWkFZR2c/Mg7f5Z+2zzd5DIPKIO53YDoP1DUIKSjrCN92Mzj7BKHcUWHqHvBeG0isqG6yyMJJ314yfAGWrFwj+HvOzsf6qx8baNHV9Xz7OAQJO3YgECMycF56xw0FZR0lJDwk4F8EehWScwaWB5tOwps5uecAHcs9z7fdhKQmNO9FfD18+7h/2l5XKB2HRA/ejFrim7yTHTfol7wLlcAMHl1wgfBJHPFJ2A7LfRKGg7KOBmYcAu+K6feJGwzMPLzK3yOeXgAv91HA5GMDrRf4hXRdE9pT4TKQPuCpx3zzBNgQL22AfBHSHATQQc0IN6NdK6E82HQSoYtjPovyszNg9wioFjgEXlsdlPkoTBdPG+bfA48NtEQZnVzL1aCso/KWT+UtnwoqX4EZecun/PJxfBLX3UF/SerfkTV/DP+FT8E8t+gKPOS4/GXHDQKC47SpgyWBmUfgIQr/y44dCEjfH5JzGo8iQAZtN+Er+PbxoKyjfim7AzMO+aXsDspynOV8k0Zx9GrEJ3GHT8L24Ozj3vHbwgouBptOqbZ8HZJ9lC7cOP9B9dz5KPTAYwOtpzaIGcIMoXmnoOS2oOQ213oNbKISRzh552HJPH+NY1MgjU4aRu7OlfTb/9Bv/1M//Aee2eicd4k9xDB0nYkbIrAZQ3LOhOZdQLQLZXi2GwEZB30StguKb+VuPfbkOuGjMF08bZh/Dzw20EKfBGVH+spzrOhe/OQOcXDqsGNS3KBfym50iMIOaWdCc88TSEqw6WSw6eQ0D2Nm7werUm75j5tk2P6XA6UQq06/sqZ/45Oo+g1eyXVuyTVuybXAjEMweQOW/SyGBzMCKCj6JmwPK7zMjOxiR/cEZBxE3+7JPEY98PhBC3buanYEVVVHmJc+Cdt9ErbjRU+wBNtxAaFTWMElhC6e9TrXctUvZTfPeg0Vwm0bO3YAPhicfRz/l2/SmE/Cdm7hFb59XFD6irD01cCsQ8LSV4Wlr/qm7MSn0IILsNzxW/YqHof64T9h0g39qhv6BSZhxetAEhDTxy28DAQGhZeDNx5n6Jq9JOWP0XzyNBX1wOMKrRWreBRVA5z30ob3RVVvSBveD0g/4DLB28LyLwakHwgruBSQfiB4I8AMt/AK4f7AzEOAbWC7GZB+gIDbhV56xw/z7eMB6fvxD4bknCakoIxDwurXJZveDSu8KNv0kbDs1aCsoxzzuejOt8W2YWVGHRqqBWWe3CAjyypW+cSQpSXP0sMX9Kzn5iXpgccVWv8gqdF+zzg2lf3ihGHHXTyFcZ+H5zT393ALr8wnheScwYMHnw/JOe2TOIIvcc5TZKXs2H5YbhybktS+q9zyFc9243mG+n4G2D9p57N0/YpVvCfWCknCwue84+6nNs+zi+iBxxVagYZSvn1c2vCBpu/H3It3Fe2fh+ScZkZsJczdoKyjITlnOOazHPPZENMpIFZK34+RhbM86zVpwwfOSVT+unvIoX/90/aFFV5GlyjDs92Am0ZQgom2/dP2wRRqeTHU8qJ/2j6e9Zp/2j6fuCHf+GFR5Ru8YtAYw/a/wgrOsyIBL3QRY4keYfCS1ofloMvcrSf+yYxCl57Mg+mBxxVa+X0Xle1fGsemFJs/F1W8ybVcDSu45Jz8kneFFVwMK7gEjlsxfayoHmZkJyuqxzdpTNnxlW7wV03fj/AUpB/+U1T5lqjyLUHJKwgkusFfXCZl+5foHr59XLXla3XXtzMlmMoivBQU3ZJt+gj9lXZyMnL3lKL1M1ii7v4f3z4uKn+DX3yTHdnO1G9ihneEms/yrNfvZ/jXsPVrA5NXrOK9IC5dsYrngdb9dOain31coSWqfDP+4KR+2+9o1i40E5r/km/yGN8+jhgMyo7/SOreldS9O5+qlB1faXq+d5d6f0A14zMFVydyXpqQN30kqXtXUHwLvosiLWaoa/HKWdkte+ca1H+yY1hRPezYgfT2C6uDspjCdPydT6wTv8ADuojxZQNA1hyQ4YEWvn8eWP6xhBZN06wb/CVm/5So8i1nGMg2faTt/wlfru3/SVj2Gr6Ebx/3S9kNGYbC8teCTEfF1XdCLS9J6t41jk1p+3+SNX7ol7yT8MjCLoteFlffcZmi9kyF7wTiNd3gL9r+n0QVb4Tmv8Sb1riHbwlO2LpiFe8pL1VA6r6A1H1c+2Vxw9vihrcDUmf4IjzrNcvFHxJ3/0CSFK8LTIZpfUh6VPHQilW8+LKBsPyXaLpWD7QeGJzwL3osobWBXygsf11YQUQLmvqa3h9kTR+jS1njh7LGD9ElzAAliQzADwzLe5GhrqWraxnGdu/4YXnzvzm55+GZDd5AeHBJLtVd3+JJmcs6Fa2fGcemlO1f+aftxW64yTGd8uJmw7axont5lmt+ibtiSoZXrOL9g6z24mavC0yhycsibH1egdEG6xBQekzeGZC2Y0NIGn7UPfkH0AOPH7TW+RilFsA6d9Jkn5H5EmaqsPRVSc07hEJ4XlJs/kLT+4Om9wfV1v9ycs6EFV7W9P4A5y5du8k/6f4Il5MKIr4NirYv8q9MQIDhy/F5/L9+ybso0mIvbnZA2n523CDD2J7Rfh5OEQYvma0uVmW1rFzDf947YV1QSmBEtajmDVhV+Nhdhsbj1+1Ba/c+ftD6JzuWZ72On3+LyCPOnrL9S23/z9r+n9Xd3ylaP9P2/6zf/ifPdgOia1rDY07QLuLV6BFp44fY5hO8HRXOyuQeCUg7EJp7gWe9wYrqTakZIQnyMGXFA2H5LwnT2p/2kkJoPUPRvMAvQCvxBoGNLLbK2z7h28cVbV+ou75dz535F93mySxrDzx+0HqaZuDknuNarobmX5g1Ed2SCMKdfim7UAlh1yeqfBMacUEbE3TbkmeEZa9J6t7DbMMO8+3jyrYv1T3/Q0m55T+qyhsrVvH+yYxeHYAZR67m09S1Doqqa+ZGz2hpkMTFBLdtdF0T1wpUT/zih2jK2qcp2mWdRp7KnXvg8YNWUv0hTu45Tu55YFiFg5Oo4k38pfu8X8ouruUKx3zOOw4cSB5W0g39Bl9tHJuC3E7Vlq+NY1PmixOW6xPy1s8kte+kD72X33/JMjJeMHwzIPOAb9IoK6aPJMgXxALGOkx0XdOT6yVMYXp+7wVYwgxvD8Y0S1j6pvXBnoPWg94NrljFe/yg5R07wLVc9U0aRXgQlNwGXIHRSUgEUPlcGcy4Y5dfym7v+G3B2Sfmuu0BlCNoKdq+EFffUXd9K6p8S9rwAa/kBhQuh9kvCctfF5S8YhybKrw6kXJ8MiB9P1liJwkLg4xlEYVbYKIpq57yUq4OSEcCMQ+00LrzsDKPGbSefEEOZ7w/sHifoTaKzZ/rt/2O5wri/yXk/ZJ3+ibvhAoTXMss3VzCnct0KSi+zS96mW8f1/T+oO7+jm8fl9S+K66+YxidENf8i5PrcNcB934Baft5livxDWc0/T9CykbT1HvxzWRZ2fqQNJie9wbKFhsENn7RyzR1/VPrRR5oPSxEofc+ZtBiRfby7ePB2Q6T+8VNfcRbD9p4zNlEf3F1LugpWdPHSHsDQktY9pqw9FV58yehhRcgouCvd/y2dWH5PnEDFF4m3LsGpB+gaRqpyho0hCgjqHhVXPV2QELvGt8YCC2u5SorsvMFfj66x5N5YD3wOEHrybUCqqrON3kngUMoLH0Fr0x0z1kOHsccvPil7IYW8vd8ZMlv0A78AutUd30rLH0VXz8EFSyRlt4M1llMmw88z4qkyCu9uNle3Gyy2EZVVDtPEWn9e+Kqt/n28bXB2ayo7pDsk4KSVwQlt4M3nnC+2VOy3D3wOEGLwUsSZA1yzGf9U6EIdWZDiJ+a7vPQcVpo3gX/1L2BmUdm9Ghx20v3NSztv9L6941jU6hO5DYDlvCs19eG5DyxRkgW2yCu4K8ztETxZQha8uZPBJWvSBre0w78ou7+zgOt5UaRy/ofJ2it8kvBiMxN6M8MTccFZTi550OBi8+bBMWiBVWyhDdL6t4TV9/BV4h5DgW+pYBFmeXq2pCslWsEL4RtdA+tjc0zh09Nz/fAPqXu3dC8C6zoPlZ4m8ux9xQuaw88TtB6mqwJyT4elv8SQeIkKL5NmJ34mUrIQ2gBhYbYAWTxRbjnAV/CzWGw6RR0UEPwXSO3Hl6xivc8O+qe0ELKXLKmjyG0vGO3/ZMdH6L3yIs9zPdpQY3L5eRpqj7EdMoZWgtCAgatC/dD9xb0Ojc3qzq/gf+ic9f0KWuWk7ZAzDfGPaEVlHUMckRAnbabhtGJkPzT6Q1jLnvSU/gAeuBxolrs6F6u5UpQ1lGuKwNEN5MY/1dA+n5onP9QeIP4lkjr34eXCFpcy1WfxBHvmH78bcAPR0zxmsB091QrKOuYtOEDvn08NO9FssROV9cJUzz7wIdArBBoHydoQW6er5Oth374D8JcdHPJjh0AZy1X7jvdPLWsf2kHftH0AJtIoHOMOcom7HhZUV10bes9oQUZ+hBawREVTGEqGmZP5sH3wGMDLX+lyQdz5EKAlrThfcXmz+c/9ZEL6NC8F4Vlry1IPWr+b1nQnQBavd/DR0JMpwAbw+xgY8BCEEFCtwkPLS9uNkVWERZhRTMmKOsYPGtBaDGl+et8jOhfT+bB98BjA63U2h3QNpEArQVNYkgWeLYbDtHWQ2K4wzYDR1TlwO5DUHwbQYtvBz6uCdAigApdCqyX0IwJyjqGwEkS5G/geVgXD3M3+DjpECrNPX4puzm55/DQEhTfhhbB8wSYb9IoFgxhr1/KLsKma541LOFt4qq3VVv+41zh/KHFLXRAa623gZfvIHTBG4968XI28AsR6jyZh9IDjw3VWheSzrNe80vZjYcWv+hldde3+u1/Ok9QlyW+SaPTkexAVS7veeiFi4DWav9kddd/YcuDsw57cU0eaD0UOOFf+thAaz0nCzq0uJ+p75s0Cl18escPhxVcEpS84uwz437qX/SzUD0XPu6fuodgQoZ2gIQMolrP+Sapex2MEGHpq7zSG4zwTvwwe/IPvgceG2hRVHVLAq3QvAthBRcB7bKP64f/kNQDY8SHnvDQCiu4CML/4FpFQBS6RNB6lhmt7nZIyQTFt7QDPwuqbj/4yeR5I74HHg9oPe+b6BO/zSW05mlIApWGfBJGwgou+qftg+EeDSN/QX1W/Dx+KHngArHC4cqCW3jFJ2E7akZYwUWEJUIGQYsamiC2X4SPSGrfMY5N+afM6WsNP/ye/PL1wOMBrWeZUeyYvrD8l+7HKBj60A3Nv4CCKkAGHZrEDzej2uo4LIUVXvbG1hHYnoCMgwREoUsErRWreIhDKC44pGt8g6ZrXb5J46l5Pj3wmECLFQVtqwgqFILiW/M/LHHMZ/2Sd/mn7vGO34b3jfFwEYXeru1z+E6EG0LfxB0owCzCEiFDgJa46q3AzMPS5GpfVeHqAI+82MN8d6s3CJeHZ1nRwdknYfA4NBeBRKjolrB0xo80/i/nPMd8NqzgUmDmYei/2vmGh1ui7ftJteVrLE7KDb+UXb6JO4I2HoNahQREoUsCtORtn6a0nAPmxn4R81lWPfcsaw88HlRrTXBWaN6F0LwXCVRrQWCA7EG/lF2PIMni28e1fT8hwgWDkcMwX9zCywhLhAwBWjLrCY8GxrKiZUGVPx7QCkjbzzGfvU9o8azXeLYbkIEBnJPNDomwIJQux83iqredoRWaf8HNWSt981k02DR1ozK7HV16Mg+9Bx51aD25QfYM3eifugc4HnSiWsKy17QDc/jHxDGvIRKgt13f5DHf5DFIuBDnYDmgsog6dYO/CEpuY46B97JjB0JyzoDgd3OwMcgi6xPrxO4n0FPrxcaCLoqkiB3Tn1jlMTB5oKevRx1aKjMIWCype1fb95O85RNCcNQFTd+w/IuBmYeDNgJdO8zQ+OGLswjth6HrlhBaz1JVftFt7NgB36QxkrjEPQ49/y5tDzzq0Iq09gZGbfJP3aPt/0nT9yPXAuIILy4p2j4PK7gEY5GIKt9EAXgWV9tyPKUd+AW2KjDzMKJaXMtVwhELXpKEhU+Ttc/TXQSPXM3UPu+fEpp/4SkvJTN8CzOykxm+xddQu7RTx1Ob+x541KG1iqHxV5pC8y5Iat/Rb/8zcONhdFgKzj4ZmAlcOs8z+SXvCtp4XFj6KowECQJ4l78ObZyCTSdhFON5VrVMtyGqBfXf4YbQL2nMJbS8uNmBafsEObu9xGUwrQ3KeEFgZUf1q0rOQX7PU14KZng7VVlD0zT6SDLdTwXPv0vbA486tODXCiznwwou6rf/qWr5gBneTpbYySIrWVJElZawo/uo0mJ2dC9NXQ8Tw9AWlv8Sps10JazgEiJ07NgBKCz2S95JVVZTldW+yWM86zWu5QrXcgVQCdOpZcLMPKsVV9+R1DoC5wHXHcCz702f2EHX0OKZnqEZ1/hHrWbpVqzipTbsE2X2koKin2VFc61XfZNHveOGnvJSwSC0VHnZ0s4bT2337IGHDK1V7HnF2N3YCSIDSGr+lXxsUrftN0njO6LaNwlICDGdgik461hgxsGgjAPecUM0dQNVUekTOyBv+STEdIpnvS6qfJNrveKfNMYwtvkmj/mnAoYBTIQK54mHJbyNAC025oKbrp9lX4xgRhZZuZYribv/m7rzP8F5J3j26yLreUNhH7fkin77n9DtzGq2kZPUxTC0eaB1TyQs+Q0PDVorV/NIkmJ2TD8jvOMpL5WbD3uWJGPH9HFyzwPuufUa9H0L85CfTpjcBI+ZfPs4K6onLP8iPlSccXTSODrJs10DhMt2zQEtjCNHqO1BXjpDix07wDBsRnAiZKiKKrQuuMyQRYXMyE6SsICmqrP0nZlJvacs0+lpkvzJDTJCWrlW5GZEPH/NpwceGrSep6lUuQ5ygYIAuGyxIKmZGdHpcuqwYwf8UnYHZR3lmM8GZh6C5yVRzZvQozoBFfLmf+uHwXJuHJvS9P0orX9P3vxvefO/JfXv+iaNEVyUEZ59MJd4aAVlHWXHDmABH04SEIUu7wktfKcxwjtQomsa8IkZsZVh2Ay3jgx9K0Pf6iWyrWJHrWJHrQ5IWROYsconbk1ItsvR8RTO1QMPDVrP0VTynD5WTB87tp9beGWu9j3vk4CfHy7ycYNg3ttuuvgrdiAg46BLV56GHXclNf961JiE4uo70mkjl7DCy9C0ZC65lhc3e0HQctk/04X90xnHYkeRlXnxTF68HKYR8O7ZsQNUVS1MZLGVJMhjhHewY/rZMf3MyO6VawQr1/CfXCdcsfqBCo7mmjOPSPlDg9aKVbxnmVHPs6N8E0YYxrZV/q5jQHmJSzD4OYacMAO847eFFVzi2W74Jo0R/sJfBmUdgYkQl0TW+KG08UN5M4ie+CgkYdlrKCzQfKBFFlkZhs1ssDy57p95ljMju5zvpGka6bpml3+xYweYkZ0MYzvD2E5T18Hf0MSOdcEZz/vEPs+O9I+oZ2obH5Ep/rCa8TChtWIV7xmqsvz0uyXDL0oSK1AXrFzNg2nFKh5d1+w86viSkJzT+Mv55AnhJEWVb+K9rj9EjImr76CWIGjx7eNoB+g+Q1XWUJU1sAdYkV3wEv4yw7fMp2fQPcyITseDrlCHbnPOMPStgMRhLSEJC6nKmvVhZjiyaEzRQP/fzjxkaGHo0q/l5OCT0T5itI9IcrbRNfXOg7ckJT4JI0Ebj+HPV0DG1e2wgb8nuhStnzkzS+751HxugA7PpA3vS+rfYccOBGUeZmjq3SMK/YtFMKmC05ossqByL242SVhAFttp6jpC7yGixDC24/9iRfcwDG0w4csXkWdF99DUdRRZmWxjpzilaZVf8lw7lP9jSHvI0Fq5VsQwOHbzM8MGN/HhW1jRQMuJpmkEv9pN7NgBurZp5rb72wU56oFHNWxDKCi65XL2y5s/MYxOwL+kjR8YRieMY1PiqrfwN2v7HdZWsFC15T8Ex6Py1k8XcLQrelnT9z927IAXz0SWFOFBgs9TFZXsmD6aqo6ua2LH9FGVNazILsASFOQzjG3oToq8AubpWtCTKFFVtaBycKYyeXFNFGmJF89E17dg8btqqcpa2Nuw5+EooGcXmoGtwpphoiprvPh5fuGN9oEz/8fghP+chwCtp72kVH7WGg5w2cmO7YfrJSuqm2FsZ0V1U5W1FFkZVVlDkZUDubDIStduouuagUqBup5h2IwSK6p7oQM81/0B6fsRTqT17xlGJ90b9ivbv8KbYMo2faxs/0pU6QimrGz/Sjf4q2HHhLL9K759XNH2BWRL4qGFZGiBmYehow7YAE3v96F5F+i6TX4pu+QtnwjLXjOOTVEVVQgnKEPi5wak7Q/MPIwS7BmqsoYkyCeL7V58M2B1qGpYMX3gSIYDleOwZNhMVdaQRVZUpxc3m6aqoWkaAM/Q2IHRrlkPsmL6sDGqoeuayZIiMCKzyR3hLeiSFd3Liu6l65opkiKapp4Z2QkWBU09TVlF09T/k2F43jcRPy//D+QfNLQ2CIvAWhuJbf1j+uBai0lv2sA5AdCrPnC+wv5y/II5Acqx8zqRl4UG7z4zvkljCF2CklcUbV+gy0VkBMW3oA475sHzFhZCbpbJJiH6HnoFgFbuOZKwwDu21zg25QZaXlwTO7Yfr+rFs16HUgR8MC6GvsVNz4DlLLqXqqhCiRm+BaxZMe76mRXVQxbBeF+ABEF0MYwYz3A2gJ1fTdc2kfhmhn7mCE3XNQNs83JeCM2kaZsKuv+PBNp7cNB6lhXjG9vPMGxmxfRR5OU0Fbbvj+mnYwdfsIzda1SW9gboXZ1Qp3fcEPKcgab7g8xoer8X172NCXlrgJud1F3GsSk8VUF5Ej+XFd0bkHEQRD1PGgvIOCgsf13W9DF0TI1uI0IrbpBfMi5r+phXdD0g4yC3+ApMnPyTDMNmn7gh3/hhGCGJ0DP4S1ZUN6ofU1Csh3sKL64JEExJMV3XQlXWoIMcO3YAO3GB2+j6Voq8giyy0NQzB2mqohpVCHxuS4r+yQgncxJDDY+xo9IHBK2nSCqSoJCqqIJySXZMHyv6flnG+MFeRN4bbEdnDh4oj3f58iBBBd8lKH0FUi2avAyUFL88F7SoioqwgouS+ndt137LOfebqPx1af17xrGpENMpkiAfzVQitGIH2NG9ovLXDSN39cN/ZJ6ZLH/9rnFsqvj2hLzl39q+H/XDf+iH/xBVvakd/FnZ8RXXcpUQthyce1V1JGEhfAVVWcswYhrAqlr0Ui+eGQz0bKkA2ExG99K1m+DZjyTId0yG2AECtBw1C3NZCgtJXPLkBunjuD98END6B0lBFtvhSswxn0WTGGaCs48TSh7KpXfckE/iCHo1tJuE011S9+49YyXLGj/En77uB5NcyxWmoYWursOMyi4mHpl0edaiSIt1Q7/CU5waC9UFoeWXspsZ2UlT13nxcry42QRoMSO2BmUfTjs5qRv8hR07mHrgm4hdU4FZh8pf/UPb96Nh+1/BWcfEtf/iWq7yrNfkLZ/KWz/j2q6qOr8xjk1xLOdZUd2qhpclde/4JY6GmA/LLTt8YgdZEZ0+sYPYEBeSBHkQGIChErGVFdUDT85kaQlNU0+RlQJeCzh0tVAVFSyMs88M3zKDSSxYs/NlaGKHV3DCs8x5aZw+IjhcdjKJdNoAACAASURBVGg955NIU1QAjrCiyidxB892IzTvRTSDw/Iv4qEVmHkE/fXAM4Pe8dvwL4U+lSBIROWvu0eLqOINPJdCsfkLAs9Q1vTxXBxIQs3q7u+4lqtQYd87bsg/Yx8JY0gQJhxZbNcN/eIMLd3gLwFZB0iCPKqi0i91TFjxKl3bxDBshow+duyAsv2ruAOTJS//run/fuP5ydJX7xbd/Ln6bUC7jGNTYfkXtYO/8Gw3/FNBBNeA9P0wioVu6DffhGGGvjX72NfG0Und0G9lr96tfuM3+/WftQM/F13/JSBtn3LrV35Jo168HJKwAOwAVXWsqB6SsIAkBJDDUGeiyMrwnQxbRZGVE77O9SXfvD44zZj/ePgpWHZoPU1WI3GKb9IodADmk+CgD3zbTf/UvcjLCr7TH5F8iBlY0QO9+9p3pI0fuuccEkAy/0uO+SwyoNYO/CJv+VTZ8VVAOogKO5fmO0PboB/+Xd39nWHHhLrzG0ntO9quL1NPTCo2f5F4ZFJaeU7T8oZxbEpa/z5VUU2RllCkJXTtJqiNCV0ycsxn+WW3sk/8N+fUN8r2j3klN7OOfA0ULHt/kNS/J2/9VLH5c8Xmz6X170vr39dv+z0k54hf0mjOaRAoOffSBNg31r5RcBWIIgqvTai7/2fYMcEruUFV1dLU9SxMGECRlZH4eSS+mcTPpUhLAOCnhdrgADZzZgOsf8DbFBairaZrdHGzSfxcXUHvM1Ttk+sljwiBctmMZYfWM1Q9Os6GFV4OzDrCjpuhDzzrdWhe/ogAyWUzMLspgC5R5ZsoSur8YTOfO4HzJszxIHDtNPALfMQ9tOjqWmH5a75JY9rBnw0jfxlGJ8peu1tzBxCf2P1T9pcnYvYDKiStfx/Jtbx4ZmyfNkszwzdpFFMTGwRzPXyLT/wAK2KLd0xf4MZDIXlnxFVviave0vb/ZBybynlpQjf0a/4VgKXcSxO2m3fTj/9S9DK4RCkwbT/c8kHkACGKvJwiLydLismSYoq8AjASp4+4dH0LHj8kfi5ZUgykXiB6WBn+L1d50wZOhn90G1OQ4nJmP/TCZYfWKqbeO9zBacW8Puxz9GzcIH4riLr70cyABR7Srpp3pA0fiCpnyYsBTat7F+lnCIpuSereNYzcxZ++hOWvu9THJwBP0fbFPKHlxc1mRfeg7goxneLknufknse0JY8Fph9kxfRxrVeCco7RtU1URQVd24QSM7KTFd0LDPuxRNe3Qh4DOKRpGlhRjmpZUd0o75M4EmI6HWI6Ka59m5N7XlTzZt657/LOfSdv/yzl8G+a3u+lje8Dh9jJuwjcC2AtpqxBQki80J8ALS9uNlAoAWisoMjKHL+yMpKggMTPdYWubPjI02Q1iZP00LFEaMCyQ+tpLylDXQs57HhoheW/FJhxCM2MRz+DaJe46q2ZgNwY3oCMeOg3QYlDcgWFUcaxKaT4q+3/ST/8B+H0RQAVulwctGY6EAgA+wGHYDaDbuYGoFzbRVMDVjhKNE0jC1PsoKkb5lK8YEX3IIQAc57kXX7Ju9jAvOAAyKfuCspx+CTFvwvyD6mqWvgswirGke8lAoZnJgnygFwO07sHKlrYIQ0SNIqs3DXGeCZfbem64LTnvOMJ8/shXi47tFas4rGj+uj6Vt+kUZ7thl/KbtjvzqxC/HigPCuyCyZ2TD/0zun8i+2mZph76NklzyDaxbePExSdEDDuPzN/aFEVVXjCtSTfC9l6S1IVrIQV2YU4KC6rBRLnmH6qopIssVMVlUBBZBpaUK0EcnHAXlFRReLngkKR1TXGuNlBGQeepuofIqLQqx8EtNYGpYFwbLnnwwouuexc50K6rpmubWJF96U3HYSJKshe5Z/mMoE4Jok7oJdCaIPsXOFSlQRnH4fgEVe/fZ8aG3OBEA8tuq5lLjYGtqLnA9mrpoEqn9nvUeRleMpA/PCYfiRNIv4VO0DXtTD0rfe0NnB+cEElFEkRSLISsEF1smxgRnYB2RcwGDNTFVVgZygtARs/STFFWgqoHC+HIq8AvBlZmRffjBfiQRpIEhasDUhaz33IIWeXHVqrAtIAwUneCb0UAfM+wBXcQxgMVlR3SHxbSHwbTdskzOh8lqxA6L9nhhQcS5YUhRVcVLZ/Kap8KyDjYFi+IyIOdOiJGJKEly7ukmM+yy1cvM+2uRCFyvHQcsMhJG6lpiVCjrOKtIQiK2eGd4DZKa8ABx5FFVT/A855NI10fQtFVg5OWZFdGN3owwxJaimycjwrnCwpZkYA1SdM+wlsNd3sM931J6ZyzY7pwythwU+ANIqubWSGd4BDIPYuuHvETolVZLHVi28GcFLVAiDxTCR+Hk1d7wAV3wwgB5iQeVCUhwD2D7JmFcOFM7l7zqgluWF5oaVIqwXn45g+BK3AzMNoT4hGghXT/yw93EeS4SPNfGKtYEEf9ixNHxZbQ+Ln0vUtXNsVw+gEFrD0LCf3HLIvBioF5nNLKDRDAuW5CJes6WN193foSAbz8FdQDPzj8u3j8CQmb/kUgQpm7hNaJGEBkCyBE4udJLLAhZ8sKQK8byBiKqAqKum6JkgKYAlNXQvUOMM7yBK7C8RicirwIJD29izU9AuOMhOo5He5rn96UQB0mJ8Lm4S9rgrBmK5rZhjbMC2QAqjXT5tW/gCIwh5Eawr8BIahjRnRSeOnL2g6LeHNywWtNWz96oB0YOyAcVoD0vZzLVcRlrDMoC/Yxb20yn/xzNOnyRq0UFFVtcEbj+sGfw3OOcWOHQjMPOJSBTY074Jv4o7ZLXGh7nTPG+C5S9X5jbrrO7ywGOFEN/SrbuhXIKRq/kQ39Kt++1/GsSlYCH8hw9qw466owqEyvyTQcoENwHmz49nZJH6uQ8MD09ggi6wUeaUb6xVUJ1LGxQyQO+n6FnTYY0X1sKJ6MGXChlmGQjH9NE0DRV6BFDVQbfPMUGSlzMitrKhuZvgWssROUzcAOwk9ptTLNREPXTwTSWQBS62umSKv9InqfnKDfAkBM/+qlgVaFE6cNL0ZWFtNM6kAbxC3CQzIOMgxnwvJOf2cT8L820q4MzTcCla4ac0assjiHTfIL3pZuukDdiyQ0vin7QtI38+zXg/GHAwGZ59E8z4k50xIzpl74sf9DbA2cc2/JLXvoJrnyogq35Q2foD/V7XlP8axKUTZ0F8EqoWTqwJe85IkkrAQbszgvMT4BCayyEKRlmJWW0BDyjmRRVbIUcQsSoqB9EkKFJfg4Y2mrqUqqwFvfbbWPODyR9xblcn5dYQSkqAAsOblDmUOug5IFCjSUrQioAwgYsJC+GnCtC3/8JIRZs6DuVx6aD25QQqtuPHzkm+7Cdxoxg36JIxAl5pMTVWg2mHavYhPXbmG7yXBDrW4SUBT1XItVxWbP/dNGg3MPHxPRduwgkv3cwwDMRlsN/n28cXJkaX17+m3/Y4QhTIEaLlhYxAm36IvSUILJP4UWRkU7EKxEr5CkqCAGbEVQEtVB5UqvHhmLx5Qs2DoWzG2HthM4kVYjgkQ00cwecZXu+g8RV5JkVcyI7aA9vDNQDvRlVXb6oDF74kWMS3xjywxtJ4ma+hOBkKBmYd51mtApmk+F2I6FZC2//5NuJ/yUpKEM/rdcITIYjs7dlCx+XN+0cu+SaPsuMGAjIMBGQfxhvpwBiMhFVC8Mp3yTXbntQa/RhDyBDcbCB73k3nw0MLPb+jQgqZpwFwRg1kLuHMiK7Djiu6Fvw5R1bRYDLiVD98CTEUkxXTtJqqqFn8eo8xtJY1/7yLzvByKrIQssWM+cNownY/ZRtlCO366P8j8UkLrWZIMqAgQHZUMwvnHs173SxiMrVqa8NVMY7vLwWBF9/JsNwyjk95xQ9zCyzzrNai4COa67aZv0ign97zLMCXgKBgHtpELTfBEJ6p8S1Ln8Cl9P7giKjrFAJGgyy9d7kKKrAxgJmIL3ATC4xnwrgX3e7N3fZALAk5i4R2sqB6wvAITkh7ytO3JcreWrtsEux26THYcwHg5DxJLhHctJbQU+dsp8nLo0AJN0MCNh0Tlrwek7t0gsAaoluBTVzE0bBUQdMyVvKN7ZE0fc4uAT1y/5F3Ivh0e9vDQwtMuEBko70UU4xS1/54Zn4Tt3MLLfPv4PQ1P5gk5PNWiqesfFrRA94ItXw50owAykiJgy4idplyKzjBcAUcMzMguyIGca4yWvNwnpg91b2j+heDsE+zIrc/7PEzljKWE1gZOJmEihuVf5NlucAuvJFZsQ5heuZr3xJqFcdgdz67mrw1I8uICHynOYwMtWGE5t/AKz3od2LGixRVkgFE6J/ccpFo8202e7QYPOyyhUUErH+FD3F9ycs/BBxEqCBXO/1Ld/T9UiXv1XOceeAAlJL6ZGb4F+PrEKbCDzoHdC3sb+3Xeri9j8/jmoIxDqJOhlCUo6+gTa4Vo1j34zJJB6xm6kWEAPuhQ4pjPBptOrQkxPfnCLPnvP2ma4MQun5Ttz3nfgz3oJalYE5TxHAsEvQ41FK7jZEPTA7quxSGb5+VAsYbzsGEcMBNZbIOabxRpMUVaQlNV+ySOBGUdAYEXzGdCck7jdZfQ2PBtN/1SgHbc/BN8Vlj6irPmLqoWHAIxiRb8DSu4BFri5Gj+kYaWII9haAMGIyogCoOJiQmdmZFd4JQV0ckwdgDrRlc2Zs7DtDQlrqBF17etWM1/8IhCb1wyaD3HjgN82GkPZ2EFl0iySvQafOZpmiEg/QCmvfpv4MoYpVXTbo1X8xhGB7sWcVEJY4DJFh025Pi/IKuKHdsPTwiQIQvzaItCkZXPJ1I4mjrzyfgmA681oooZDrug9BXkr5NvH4dSLGUH8PEEU1DmYRI/1xu3k4HljzS0+GZMclVH17eS+GbMmyfAGJGIxQ48TKqVdYRvv7mWs3j+M366Ljq/ZNAK1FnJYhtN08CO6aMoa/mxM95wnRu3NsQUUXEoqv/L8B1/pfW+odj8ubb6+rowM4OXzI8u5sXVAh9pWFU0TQMSCmMaMYBh5ZxIgnyIH4axja5roqlrYQKqCdP3Y2LEJooMsOwp0hKGvsU3eQwIuOYOq4XFNJgXbwOduJDTdkHxLXH1HQQkTd+PxrEpRdsXePky4bD36EMLExkBb6FgCZMUIUX4WTJijJrR5+2ZFA3Q4jO8HB+cP0nQjUXjfjF1zhPvQZYsGbQi7f1AzoBtxFfO4yj15HrRk+vF1sEL3vHbvOOGgjYe49lukHgmiiCHLLIAnACFsTx4rCIJChzqmNM4mTUMvBxwP/AK5PoYNnMzDzgYAzppoB4TXbsJMJQ0jd5xQwgDhAzPdmM+VAvTrsJOXEUvE2pwXBa9jAeV63swggapFheEUxikqRseJhvDZW9jXUeWFLOie9y7N57p9jnrcbFKLu4pirQE36U+8UOSpKoHCSTndy0ZtP7hpXieHbWBb31q9snK+ZX4kqfWi4LDK8FaCJxsFZH4eZj31ga8ZJ0qL6OqaiG1IfY7z0SRlcNTNfEv3HACa59pR5ZkYSHDsBnVBrTslDVkYQFd28iK6oHCN77tZmDmYURSQvMuzJMvD0dXUHwbufvEj7ebfHD2CZ/EEb/kXYj5HlZ4maYGwtlHElpA3QFEUcAcG8+19KAduJuhWcK/vOOH+fbx4OwTwdknlBn1+Gn2UPJLBq3Ftd7ccfiF0I2of6mKaqqqDvOTPLOeURWVDmsCHFrgIyRhPnAQCRThXPAMZ1WLmYU7SoDq9MzGEttJAj94FGkpPuwqjMED8QAdDcw1h1A51EIGbj3n8HHtEl1IX3kWtPIukEWWRxZa2GqYB7zZQH+S0ywN1BVAZ1/XhIZguTNkSREUMHrHDQVmHlrcbFzapx4atJ5cL1JlNYPZg9lmQ3qF4WRukGCGOvjjE9BhUzgcmrscPMyQaRNZUowObC5vI4ksZEkRQ98SmHmEYz4LdTjQL+QihuZd8I4bwk8d5zx0AiUovi1r+tgliuYqBN42MUMVefO/4T1+KbuAe7mlkGsBJ9VOq9J9lmDsJeBskK5vha5snM3AWFHdzsZU9/le14/zTN7RvbDfmOEdqwJSlxYki6vtoUFr5Rr++qBETCgJsARYIOp6cAlc57VSFJUwze5KExRizi6coW+EcqDzpqqFdRL+cnkJ1OF0zTCxorp9ErbDhPDgk7DdGU6zSwY5uedg7EndoMN7DHp8PhlV5zfQyaam9weWvpkV/dC0MVx2EaGQrm2ETnDxrnDxHUJT1REeWY5LkiAf8qKCso6SBHmPSADLhwCtlWv4Lwgsz1C0awMSwb7CyaOIw7OXrgnaQbhedHkm6FgL71vL4WVyukKypBgoni5qwUbVwgz8dQ5KgJ9GKC8oeSX1yG+Ytcgb84ETukdY+opu8NeYfVPRoz8q278MNp2S1r/nE9O/uE9Y/qdMFHkF9NePvp2QYRg2PwDCRVNU8u3jXMs1VlQ3RVq8OCKz5E89aGipMhu8oCd+bHfHjOykKgAbY/4Js5ltxXwS9QBxMDDOm9YnBBJkYIk04x7sXjUDG0F5BUqEZpBFFmAmBIyFepiRWzk5Z4I23sPXL7TwV20FDv302/9EQiqEHzeZ2D2/Jx6e1A39Kii+LSx/XTf0m3F0Mth0iNCqR+eSLClyDy127IDLczLsdrq+hRm5FaaA1D2huedE1a8vdD54cbOhiQPXco2mqv4H6aGZFRPA+UChtTowHVprQ5NVurYRnXShC0hMiuX6rIU5GwE2swxjO4gPNLc+NUlYCLaC7hGLWc5Cn8kMYxuwU5KVU5XVVFUt4B9KSyCfA7aKoW+BKQhzQYWxxd0panDM57iWK5qe73WDDsfR0B8g3tYYnxeWv67Z+nnpK3cNI38h8y1h2Wsw7xs//OhgidASCC0CpSJcMsM7KLISpm4TO7KLU3iOU3hOWv8+dGyIvBcSMnQ1zn38vRZHkiAPrlbsmL6g6EcoyusDghZV00SSlEI9aKqyGjhpUFThWAsmGKkEbwmLH0WKHHPzgEWqxlwguIYfeoTEzwWWebPRRZGXI8YgTVVL0zTS1A0E30DA1SsIoAjE3zAON6oTu6zEHJKOEmYP/jJo4zFO7jlWZBe/6GUhppAB5w2eWAVtPIa/5NvHI3ZPxR+a1PbNxL8LK7hIV9cxjR1U+fycNt9rCsIPgTZOeO8X+A9ccJ6X44b/7peyO6zgoqDsFVX3N9qBX7QDDjfaBCA5X4bZLhC4xG4aRtc2ws5kRfeSuFkE0vEQL5cdWmuCMmhyhydUsFsDylAdhP031EuaC1ckQR4Wp3BWnBiXfQ11MtBf2JmtFPHlgd8SZQ1ypeB8xkMPogxZbGNGdKJLEBksdoAd1cM0tPol78QjCuYDsw5Hjvyg2/YrK7IDRFjUNbHjBrmFV+Ttn0KDAP+0vZzc8/6pezjms2EFl0LzLzAjtgRmHJQ0vMPJPR+y8XjwxuOBGQdReD6Muw28yS5JgtsEVrST97/7qJ/gw90nYbt/6h6u/aqk9l1nzMyzRNzwr/mMDhQABG8EPrYC0g+QxUVPk1UPEUuEVy8jtJ4ma9YFpeHnBMMAzFEJCrWYuy+MPz7HAGMS3vJ7LmMUeQUMHol/IzTvhyQIc7JVCQ7W/Fzoixx/p+s8z0xVViNxMwC5ulbR/oW4/g7mzHnWtjBo47GIkZ8zz0yCoARFl0l8c5jtxdC8F30SRmjaTZjG/QUYM9Y7dgDzzj3sHTcElCFBe0qDso4yIzsD0w8EZR5hhrfDBNqJ09Vy3cg5+o14My8HaIFhoRWIf82zBle3UeTlaInh5J4X17yt7QNerO8n6Yf/AJFWXL2OUEjXbuJZr3EtV73jh2maR2g3uGIVbxmhlVwzNrPxwNQmnOmVFw+EFZyLXoH4n8DJqzt6ReKbgQ6UvBzYnN/bUThY/jFWRzUB4TC+BmHk4CXQh4DuWcRWuJcTV98JzDwMDJmnRaW+yWOiijcxxzK/CUtfldS9B44W5rM8200oCA7JOQ3dzdJ1zd6YIVlo3ot+ybvIYhtZbGNHdugGf625A5y241P8oUl+2bjLVi24EIMWTdOIVooF1+BqrlNk5ezoHr/kXaotgHOzVElQcns+zQtIPwDsxM3AzUlsUQ+ebjz5gvxpilZbeiKz5XD21rMF22+buy+h9LxPMkrPeSe8EBiLf3ZJ8ssLLeQTBnpTQJczvQbCYAMHJnMlkrBwBp+ubsMc8IPQGHPV4Fw+HZBmzpcSHkESZ5q6Pjj7hGrrf7X9PwmKb0MTZoguXtEN/fY/9cN/IM/vhNMUugzNexHmJTX/0vR+Hz7wqen4JxHD/7XemECgMl1w5KvfuhvR+xGhPYu+BBtC7aalhRYzvF3V+bWmF4QvWcI0H2jRVCBwJvRvGZh5GI+H+JJ+L6EFObUPzDikH/5T0/u9y6Ro+4KXuV1rasbXcP/5JYbWE+slASl71oeantogi7D1wUlAkZXRdc3zJPELnDcmjLl3z6gW80URRtPyyGLguogV1Q39pQCWY2QXEj0z9C1hBRd94rcFm0+IKt9ixw5wbVcjdk1F7p5Sd32HIOQ+I6oEJM44NpVyfBIhCmVSjk+mnnCUxw65hhZZZPVJHGHoW8CChUXZwejw3AwenpmuB3FQ7+kMcD5DADSwVFVc25VFwMmwY8Iw8heefepciaDktmMb72o9xVpoCso4CKMI+CaNPj/tcm/lGr4yoxHbmACZG0qc3PP6bb87vwiWyFs+CUro5kYW3T+iUA1LDK0X+IXQ5BsNDxQ0oSCFqHyJMqaFHkUwf2BEV1BoIYfev5A3TNRIqqIKT12Bg3KxnaFtDCu8DLaIJeN5lye0nV8S4CTb9BFisksbgKc0Sd17sMSwwxE7R9v1JR5dpgsTKccntV1fZp4F0Kp446607hZqBj5DkZfxLMBJQVDmYbquOSB1LyZyqMLfMztv8uKbMY9o7rYJsx9xvSSR+OZQ63lNz//mmqkuyxWbP5e3fmYcm4KxXjW9P2SembRcn7BcnxVGCHMg9z+fuCH3LSGLCjmYFal/2r6wgkvPecfBOU2WVfiogc0LRVqK3GBCgMkaP3TZMFio2PwZL3N4CWnXkkErSJNHlwCnwcyILQSVZ2ARPM+wf3MuUa7H2H3vo38BvFXA8ytMICpHdC+IyatugEsj4CXKMck1kHe5sLCcqUpYCANAwTMbM7wDwknd9S3XctUvZTdQErXd9E/bBx1mwH9FFQ61DFnjh4KS28jcmFt4JTATWJ6jIZfUOnzXxB4A0LJc+c03YYQsKqRgwgB45AOK/MJCprGDZ70OvGSDcMPnuYVXXMf+wLqUJMgDbNhpVi36nAVneCZmeIek5l+owW4yhh13dUO/afp+1A3+GrFrKvYAYPAYx6Zi9k0k7P9V0/c/dc+3qu7/Cituh5rPosSK7KQqiQsEZPaA1mIe2ry42UxDK892g5N7LsR8hm5oW7EKeIUgCfIx2YkdmA4Br4nVeHT5p+5Vu10O5C2f+sdu5UUtjT7H0kBLn9O6LigFcB2A6AmYQhDGjMBtJ/y7rJdA8A84HKVIMQpzcGkFtiqKSgbmGQoLT1o9r0byzQzDZkzp0Q6coeNshEPzLvCs17mWKzzbjZCcM3jXACAQcO456LQQT9mQUw1p44cwCUtf5VquiOv+Zdj+i7rxgrT+vbD8l0LzXhRWvBaYujswfX9g6m6u7aK06X2O2eGQA1UYknMGto3QnxRZGYj2EtWDxHqEG+Z5SRZZg7MOKTq+cAMn/F/6bb+rOr+JPzhZcHUias9U2slJaeOHvNIbgZl7WIZWqrwMU0ybsVV12QyyxAZ8S0VsgcdpFKaExM9lRWxhGDYjaD3tJQ9O6mHH9APWF7aIQBN1vB8k/9S9yg7gWXWupNj8GTelS7OxCe3rFp1ZAmgBncCwLNgvdF3zvCboXNQJrknOv3Pdf69y4G/VledHF6PINwN7lntVOB2w0OQdPxBWeBFveIKpsV1FjuZ51mvQ4kvR9kXNnbtzeYdHwECZ0LwX5Zs/UXd/Q1U6jun64T/w7qIMI3cFxbf0w3/AiF6Y19SrfNtNjvkcK6oH/wkkfq5DIT2m7z43DhSJPTTv3FwzEpbrh/8wjPwlrnorYtdU+M6p8tfult76TTvwI7/4JhaNoZ+iqCRODz5wGoVv86w8L8eVlvb0Fga4ts8H0hRR0YrV/Ke8VN6RW1nRvWB9wfS84QoInAtMe3Fmxw6Ia+4YRx300/lz9MN/BG08xpDbgnX5iwYVfHAJoIXmLhZi/d4CKHzfAQ1azAgSFpJFFpcJRi6DIXHBI9MKuPiqXOYxdvzcJ3s8kHgmmooonMWfr/D1kyV2VdfX8vZPCdAKyjrql7I7CPhmGOfZbgZlHeUXvawb/CXj9CQeWv4pu30xuz2+fTys4CLXctU/eSc7ogMmpqEVO499Q5YUI7zhM8CzzbQts7TxQ5+EEd/kMWxzeG7agHpm8mFuZSvc6IXhv2uuPFVRKWv9yHki4ktkTR+rtnyt7f8p56WJ2P2TqvbPQq0XfGJ6KFLgcxNI82crx8B3YWJD1ztwSKDmatJ0nVVQiLI2IFFjamNoG2GMPLRph24daGrgVwKeuHwSRwC65iZc2r4fg7KOeInu1zfofUFr5RphWP5FpO4AFfzQguGmU8BfvBySyOI44eCn+L3yJH4eFn2j3N1qd69K5mobGBI3iyiuWiDSjdgKFJqm3cgAqlV4GXO+vR36YAvMPCwovoVGERnwB6YfIPFz4YNB6fuZEVuAHwHtJqxbTH6pezQ936u7vyGLbfjKCXlkbemTMIJFTrnpHTdEh5Xg2jnXl86/nCIrUXR8jr6CkAFhlHdMCEtfjdwzVfba3exzf/CLXw5I2zdrGgCppisuLs+E1mXn9ri2eECfxgMrJmSSwX6DAwdcTWEoAoHwlNWoEuTGAwLMsAMEfZ4rGbb/5Z+8kxXV0IX5yQAAIABJREFUtfI+3K3dF7RW+SUCq/vpkxUgOG6FVGRJ0VzLJ6Rd8AaqsoosKaJr6umaelgCnuKZER8P60rgehJ0LogMsABTP0DxpncLzsNJU1ZTpPNioIH3iqzMiC2EGQ9j54WYTsENIYSW+eJE8rFJPLTQZi/EdAoGSYIa4iRhgbjqLYxL9g1VWUWoHH8pqnwLoisk53Rw9glIteDR0fm7FldC4pu9o7qlLe4Ya8qOr7T9P5tfmsg6O6nc/Kl/0hhNVYPf9cGgIS4ZuTDQo8u2OY8pGRpMTEOLsL/FSJwFC3FUDUTwsQMMYztZbIPvBaKC6Rh5vkmjwdknJHX30MPS9P0YkLLHS7x4lsbiofXUCxJIbV12jVOhCXDhZvMJsa2dGXi2UNUyjG1IBAFcnzoinQGnnIREVdVi4ibiNg9zOzO9EZoeAKdmzHXDtL8aXg4jvMPpKfAv/FigqDW9lACrTWMbfrrDPNdyJdh0EjYbQqvmzl3Ti+CABG8ITD+AoMUxnwOWF7JSoMnFy/Hi5SBokYSFzpW7KeGYnTaEC+6HWf3D0DZoMUdULlb30Ulh6avhO8GZKuvsXzzbdeyEQxwU2JOEcUfd634hRrctIkNVVrNj+2dvQEwMfSvwVW67wbNe45jPhua9iPl4veH8C0jxyF88242grKNFQy8u7tC1eGhpzFuhUYb7LwfLD988yySRl0NVVNI0dX5JY0Ebj/kl7wJRxiK7aKoahqENJuBnRl5OVVQBWbOqhhXZRTCe90sYoc02PYCrmvNq5655WEtAEAAsFhN2p4mmqiMIKymyUrLYDjWSKNISVnQPRVYKiRtJaHH2tcazXocahv6pexC0Mo/9gA5IeGgBqhXdx9C3+Kfshj60IbRUXV+jTaMbOOH/WlpoURUV0ub3XYBqbErZ/qWmB6hfJB2dlLd8wo7c6qaTyVjMOzc3LNNfaN3HBs7O0Ldycs/5J2ynyIBXc1Z0L+QcBqQfCMg4SFi+4SUzvCMgbV9Q1pHV/ouJf7dIaD3PjvTimhiGNnTQctlBWPTOmU02sDiUlkBjbxjJDn0/PHdCYMBCLBpNJSZxAmGUYFUQzFRlDQySwIruRQdWfAPcqx3CO1FV+AcBT0lSxIpx6IZjGHOxEpOEhZhBKxA9syI68fMb5uFoBWefQNAyXZhwSbWC0vdR5OX+qXu0fT/W3LmbfNTBvAo1n6XrmpxrJpQww7cALcrpoCFExcjFUi2KtFjV5VonEApecy8BjQq/xFF871EV1XNt+PG3LW2eIERFXEH4Fqh64hu/nW8fR8aBXtxsINXUNKJ+c5kB96iABz7Mx7VoobRrMdB6aoMkJLqWEGjQZX/NBFYChj0N3vHDQVlHADsY45BCoR5GEBZwWIJ1wmjWMPotZujaSlNW47dqoIunHaS5bBuIJeX2BmyQbC6hCysHzszAicuCF2Ghqc+OHZgPtEJMpxiGzarmd8pecyjmGsemUk9MhprPUmSlqDbnjLj6jqD4VuTwd9zCcy4/cNGFZJFF2uSCXqm7vzOM/JWw7+ecCxOG7g9oqhqKxI5NPsc2kqqodnmmWnRLFvogFvChmiqvALoy4KwF5lVA+oGwgosMHcYlml5r2DF9fvFDPjG9PjG93pFbQVh6fQtwDquqpkhLHDrTDmhlkyVABv0MVb8gdC0GWivXCrEgZdVzGXpAUR3qF4q0lKZp4JjPYhjY7FghHOImFzQBPeg2M3P+mfF5EtM3+8RlcruIzuvVbq2bgBdEiqwsOPOw89TnWq7OB1oc87nQ/AtJR+4mHZ1MOgo0MIxjU5brExjVcgS2ca4clVS/fVde85rbjpp1fLrnnSRhIcd81nkfqBv8Vd31rXEMHK7Ysf1A+oxZLeDPM7M7f2HvvWfD5n0DGlYwQ4BUGpjtzPjGg/WQhYWs6F7vuCGoLT3ruGW9zsMSO6ZvZobzclS5/c+QFhBgcjHQMhR0Y5bb/YQzCfp4/MmKYWj1S9kVmHGIHd1LVVRhDDoQxBrdDDNYnIQqmqaeqgRRMKDfY+CWcHqrQ1VWUeXlLukMFOrTtY0+WJxVvIUV4S2LuCQos2LtR4MHZg9JWEjTNKC5jjKIQ5iDqbGn7P4M/RWYfsCLZ1Z1fhNmuUTXNfnGDfnE9JGE+SRhfqj1RQQtirSEZ73ubJIcln8RuR8V1b0VYj7DMLSihOJnL+JjvbjZ/sk79Nv/xENLv/1PZcdXms4vTRcmZE0fsSMdtqHYtmWWNuZCoQUlVzDIEJC/KauoyiqGvpWmqWcYWmE5/CUJ7qG0MdfHYrxKx3iRhBa6vsUvYQQYN2FWcGRJERMLB4dFgWgHcZlj+hnGdviLzu1wEtL1zbH9t+dPuBYDLbAdkhRRVXXOXQkU8KZZ2xRpEYwhjXVWA9hZYbIIfC8AUZi+laqoAm6oMaNAoN0rBtswqqLKcZ7B+GZUeSW2UuaAR8LbneUkoBJlDfA4GdPPiunDMzlAq5zWLXwz3OcxXwNgeGDgQ8LN0E4MwQafCcSoWdq+L2vu3FV1fIH+ApbLPLOg9BUacKI4C6gMw2Y8tDDR8w2fxB18+7hPAjgw8O3j0PUNKHEV75xhBHpYi0vMiC2S+vfwuDKOTQlKbqu7vrW/PCFv+ogsLEBsPSzI8qzGO88Hl82AwigoBWXF9LFi+rAYvFd51mv4FJR1FP7LiuljhHeA8QVLM3FRdvkKl4UsQwvPeg10qfV6YNpeoJcHvP/2A55TVA9ZZAk2ndT0/eCfuhcE3QO+K02OpRybgZBLvDowbZ7oWhi0nlov9tHNuNREvYy+BNErkrCAEd6Bnay2ALVxkRWvQgFl81hU6UZMF6mCadwckH4gKOtoiOlU8MZjgekHMeOiRvjLitwanH2CFd3jHdPvHd0D3d8BLzGg5lnu0LCQm8WM8A7/tH0MfSt+Q0iRu5MywwfRh+Az7hV24bkLaQMi/PDt4xzzWUHxLUi1UJgFUJ5zOiB9v6TmXzRVNV1dyw5vh8k3fltI/mlF2xcZZ7CzlrQkxHTKL2VXcPYJ3+Sd+JphPjDzMGJtYVJjALxFQ4ssKRJXA5EaSvrhP+UtnxjHpjLPTvLLb+K7GnhENbbhe8l9HmjcAwcK1XR9S0DavpDck7JNH8k2AQ2PhMOTGadBQu/NOD0ZvnMKFSpaP5Nt+ohXesMvcZSh20TXtzizLpzf7jw5qfIyTd8PsOvCCi5RpSUUaSnDsDkw8xBZYicJ8wXlL/NsN/ySd7Gie+CgO8RiYEEBOiVURdWaoIxlgVZG426qKNf5MwglJGEBdCND1zVBXsWsHTkWWRCIpyTF7OjesPyXuIVXvOO3+SSM0LWbSMICsF2cJn0kYQFFXklVVEEHyN7xwz4JwyGmU2EFF/2Sxrx4Zoq0hBmxFUEatoSqrAZkPXYgMOMQ4hYS4E1o831ewiBAzrMfQitm3yT8S7bpIxQaXFD6ik/CdriOogehhbJxbIod3QsUVgT5JEE+5Ijot/2OkqD4VkjOaXyMc2Xn16otX/sD05JO5/32fL6OU3DWMDrLvkNa/z4sCbNfmlUnEFpUozG6Z+XQVIeqrOFarijaP9dv+9380l8x+4D2hnFsKnLPVMw+kBC0YJ5QaL0xod/2u3bwZ67lim/SKE1VR1PXO29e5moM8AImsvJs15gRW8OwKJ50ZRV0pkID+y9AEllR3Vi81nrgGRbbpBBqA/NQ27L00KJw4ijSUpenHUzlxEGpScICuJRi7h2BUhKiVyS+ma5vBjoWYis7vD1o4/GQnDP+qXvouiY8ZwnoCgoLAdNG1wxCU0dsoeua8ImqqGBH94aYToII34kjQMoEAu924M9FIMxPeAczYgs7BsTagntRsHt2EPd7bJnA7lRY6JJeAZE/9GAjAHHKwUlPkO8Ttw3BA5+B0AK7uKyjfPu4uvMbQfFt/A3iqrfVnd/IWz5FhVCuxcQJi5gRW0MtL6WdnERJUHIL0SuYCc4GnemTOBJmuxyUc5wwJ+55SZGVQN+JcH4Dc+ny17WdX0TtmeKXj+PpFawKvx1wUzlJWEDXNfmn7uGVXI/f+0vStGgBociwYwK6W5S3fabu/AaftAM/q7u/Q3cax6agEj0sEdfeCdp4FAgksahObtoAJie2tYFfQRZbQ/MucC1XkTckxxeJbXRNIzZdzV58M0YbgBI9XLtBJ0f1iLN6g3V5Sw8tY347wcwRfQ9yDEigV0BFcJr+gCNjeAdZbKdrGsLyX+JZr3nHbwvLf4nmFIiJrt0EQ+XStU3gcO9KGReb+vnABWfkVu/4baF5FzCfgaXMiBnxJRT4sKJ7g7KOzvDQwXlv1gkBfQXqYrB1wU5uwKIOcHKB4zSUMORjrcI+DdPPyKdIi5FlPgIJ3z6uG/ot58KEbuhXAnXC30PIQ2PYkGwAD6qiGjgYje4R1b2JbJBr7twVlRKhhZCmH/7DP3UMtXaeGQJXUN39P3XXtwVXJ3hFF/FaS47aANUimlQRXkSRldHU9SGmk8LyV3VDv+ZfmYieTZpEFW+KKt70z9jnl7bbP2Ofd/w238Qdvok7mIY2dnSvb+IOv9RdIKx73llRxZtwX4qHWekrd+P3/67c8qVf8k6KvAK/NBNaQrikyErDCi5xcs/jhxVzOVqJKV5VYvlyqrwC4xDmAGGsrAzodohL1vmEzxNXC3M7s9o3lq4FGzxCW8nYnhUWUmSlwRuPA9MSEXDHiZieVGUlw7gZTBRjG9jOpuxmxw4EZBzES/EwCmCja5tY0b3gXISbze7zJL6ZoW/hmM96xwAJMl3fjKgNRvGr2ZFdAWn78bRr1vYG9yJog0z4BT5AZaUuEQ7jm2BBhgpDck4TQAJtHOFZS9H2haTuPWk9SFzLFY75HND923gsKH1/cNbRoPT9IGUe4lmvwQnEs90IzDxMkYHzAN9+MygbU6If+g3+Kyi+BdTBnLTA2LEDmt4f6E4q/O470D9l1DAyo66q6f1B2/lF3uUJce1bZJFDLR3oUktn+IFAd3RuV1NA7B7dy8k7m7D/94RDM4cow8hfivbPwbdnn2RGbKECjc1SkqDA5dkJKy+FY+ETt41jPsOzX1N1AsckeIwZx6ZEVW/5JGynSIvmGiP85xOghZnqVVJVNfADgS8WsDWzMIztYOukbwbPCiwrFx67db5sjCfWS7x4ucAcyEkxHE1Ziqw0NPdFprENiz1XjXBF1wKxN1lSHJp7HlMCAo6QvOOHfeOH8XtlZngHK7oX+EVxa+eL7yZ8niy2BqTs4pjP0lQY7356CQD8KGUN09CGp13zGQNUOUVaghnYubPmIvHzwD2KCpToquoQ8xnj2FT03qmaO3eDTcdFFW+ou74VV70dYjoFRHz6Fsjvgo0hS4q94wZ51utw3oDQDTH9ITmnKbJyw/AvKUd+59lu+qfvC8w+LK56G2NzAbKPR5dfyq6w/IvKLV/OU8MYfaC0cUZArOn9QVB0K3L3lKL5Q+q0pjJdU0/sMZ55LsJFkZX6JY3BM1XcgcmY/Y5DFIjeUjzONLbTVHVzbUZQkwgZEj8Pcz1QwjS0BWYdEVe9jUeXYXRSVP0WJ/ccXbsJP6MIlcBLCK0Q00mo0UvTNEC1cmzv2gycw2LzB0BLkEeRFjPDO9aG5s6fWKE75wsthjCdLLJi0HKSvkEeHc+Mmcf3QtY5GgmqohJzVFCMeQ674ZeyixnewY7u4VquApfF0wshVVmF+ejb5Mygn+mgeRyTGMa2wMxDDE09TV2HZhjGkKxmRXT6p+0D2wBMBoCkFjP148gXoRBI6DGskqVAA42QgJ2LE6Eg8XN9EncIim/F7AfQ8o0D3s8Zxs0kvhnzAFeLLds1NM0m7LKGYWyHhAhOGqrCwYnxTdyBxX3+hB03GJC2H3i5wU7heAcBeGopqnkddT6hnS4vWRGd+Gmq7PhP3N7fVVv/g+xToNtGl88SCkmCfJq6Psh0VNn+FarTsP0vTe8PUG3S1QnNRBLkUyRFNEUFQ1OHEkVaRJmDMGJejDYBg9GWf6O3YC43/grOPkrXOqJwENqGLsHrZGUYw8yCOSEvpuuaKNISwHKT2CmyUpq6HriUE9tAGzC3DixN1crV04G2UcTte2XmC63cLUfJkmJnL3ZokYD6Fgx9M2ZMVYbOM8zwdkiv+PZxqLQK7MA3HvdNHEEEEPiyix0AY+lW+gR82bpQSydOdJqqxi95l3fEFgzkjiMB9NbmkzCMp13O/Fk0AHNl8NBC4ISEkfAIiZ8LtTHghpCBi+NG17eC8VM3xFfvyWw5jBIkQbH7pxKPTGIeS5tgKD3L9Ql58yfw39C8C0CnOWWXT8J2v5Rd+AQ5JcGZhwktcX/Js1xFE1Ta8IG04YP4Q5O+ScOENW4+fUVVVIfkn0YedYxjU4BpXnSTHd0LDmwEqSYvh67dxMk5xS+9GVZwUd39rab3B9mmj7R9P2r7fgwrvBSad4GTc8Y/eScTbMjLCHODIivxjhsKyT8Lg0TDT9Bt+52Tex7zCTujuery84HDPGEhRVIEGCGSIuyRUpqqlgLCa1SSJXa6rhlbhQEhCYjv9k/ejcjRPDMLgJbLJqJC6H0BHAGnCREJsFm2Qg47z3bDN3EEm0/1dFU1t/AyetCLBwK5M/QtMyVOZAH+BUK5qWqhfhcyxXH5FEVW5p+yh6EBPhJmaJewEAatwaLHAxECdkaaJRabqY1nhu4KCacy4PkDY6tAXzoE+hAcUYHSC0Jb0MZjguJbBVcn7ON3GXoQToUkyCOLbSxgq9fvJS4lDJJ37ADPej3+0GTK8UnknVfc8C/L9bth9sto7xeSAzxa+iSOoBKY8U/bu1C5Fl3boB/5C85L1db/iqvejt7zJ9eKG53psQBKHk5nAdRdYI2XlQZmH1F2zNArecu/veMGCU7yQMBbbUNA1n5p/XvafuDjnlt4hQOCtZ8M2XgMJk7OmdC8C5AUi6vvwGjrAekHGLpmwgGPqqwOyjyiHfgZrQ6GHRPB2UcBDZjLdBDoJAApK2a6DqRVwH+zugEummCVlJcD1hTuVEISWhjGNkFCNWG83F/eF7TQ6ynSEp+E7YBTKa9Aqwu2z6miKSq4lquh+S+xoroxk54cn8QRQLIcYwZidWOhYlxstKbvycbOUbsBqz1plJN7npN73idhJMR0OjBtr/NODD5FkQFfYt5RXRRJEZKpA468ARiGIfYJARvojYANKCiACRV6cbPpuhbC6MJ/X+AX/IOkZAlTUXrGSyYv3CcqvQXUAkcnV6ziJVWN0vWtz3nHP8uIfJYZ/TRFRxgbEt8cvPEYhJZf8i6w4hjbFG2fG0b+wkuH+fZxedsnkvp3YVfAX2nzB9LG95UdXy1IZBxqOY8cRchbPjHsmND3/NslO5umaUTDje8QsF4IC9mx/SE5ZwzTKAWuue2XfOKG8Fw4oG8e1SWufVPV+Y2k7l1R5Rs+cUMMTT0L8DNq4J2YHKUUmDtIihiaer/kMW7RVUndu5qe74Xlr/Os10JMp+i6TTOjBvQYqwMzD2l6f0Do0g39xsk9N6dXZl4OTV3HMLQCvgUQ25SCgFLAdwjIA9/pzg48sLlKlpevXLcA/ff5Qiu5djehQ8ElXMZAW+tZQAuuENMJAl5EyEAwtYnEN2OhRC8HZh5Sbf0vw7iZIi/nFl5B0TegEGwuUznsFSaqrCQg/QDHfAbyRuVNH8ob38N8VtdxTKeAU/X44Zm+nl5loX+YsIJLDE098HYyzc4iCfLAYQ9aH2I3u3zWxcfCm4UFSJyAv4cstj3tJSVAZT3PAqHFt98k/OXy8gVeblDWkdSDvyQd/I0V1U3XNgVmHcq7PKHp/SEgfT/0g+2bNCYsfTWs4JKm9/vCiz8l7v/ZduVHED2o59uw/IvagZ/nDy0SPxe5NxKWvqrZ8nn4zim6tgH/XYhXQVjI0T0kQT6wa8o6iGa2cWyKX/EyktTDOykSm1/yDsOOCXXv/4I3Hsf8UgLrfUwXZybAGvRthndSAqZWVDfXcgUsKK2fQFLmGz+MWCzYXiA/MP0gz3bNsN1BgY2jkyHm01TlnMGEsLA1uZDag+nHN/tjplmQq4G+jpBZuUbgcuBcFs4XWiQQshpISPEJTkpgLx3TT9c1YeY6Dut3oCGBWU3z7eN+KbvF1Xe49ivA/46+OSz/AqoKeDKIHcDXScgzDZsVmz+VNX0EBXxgFW96n2c5A46hQGkjxy9xB892IzjrKF3f7KyZytA18azXyRI7w7AZiQ1mjnYQLU7fRWgD4dLVWTyb/v/bew+3to6sf/z9B8C9YIoR6iBAdHTVu0Ci995E70VUG2zAmOZCM9UtrnHsuJe4pWySTdl9N5tkUzZts7t5dze7Kcb/wO937kijy5XAYHDK+32fZx49o6u5o7kzc+7MnPM5n6OsMlUcSKgeZkekubgREaZKFzcCi5Z++GunvU+7uM5DvoUX13TylbjhP4QWnA8tOC9teiP19DxRDVSewpwT5OdJTd+fBSnj/ulAiYFSaMlFQcp4YMZs1Og/aXOa1njqV37cIJYHaePrSScfixvvUjfAoC4zWCUNsCyUPRKuh63tEOacxEsfCiVBtsFuPAxMGVP3faza+6Gk6TWuvgONPrBNxQ/7Jh5myqp5pt7gnJOkHQ9iwdBedj6Sct/4YfDdLrooqryDWBxFlS9R/ESAe0OQegS/KSCg2d73+fFDTtuMG49Ey0dSzjV0avd/Lq592TfxkKN9HJdfe9Fa760myRMXHEvwEHL0IB4cPaBFUCNI5XsH6Z5wlah5wNW1BWTM+MYOMETm0MKzkeU3cUnYmy1+ymJr24nqe9qBz+SdvwN3Y4iIBdZxBELhGXv5Mft1g1/pD/41OPcUUfPAUckBbSi9GpJ/DhyWbZQs4I5p6AKUBtlgH5JTFnefY4YpBzZW697dxqBCGmTKwbgMhAJg68MRaIp6nyvqfa74+T/4p0+jVSuy4jZViraytdSvtHzl1Cs+agu6WDUK3IZE9X2wqGbMBJP+sKLKO6LKOwANS5/GSVT5krTp9fDiywxZHU4+shrEekkyi1SylfVsZT0yVflIymSWN5FoaXo/MU5+n33yz1xDF/XxEQ4IXQE9odoOH0UXkWZLvtuuCpe2vUFzwxEkDEWP/Us3+FVk+U2GCPSBsOyToQPhZE7S0Yhr7mSf+xY0N2DVPEii+CGgDG6Mj6QChyH3Tz0CPKokUhkabNOOsDVtwflnoyespj+wd7W8BQR4tgK4NpzhkIcRjr6To++EV1X2cd/4YfwrLSOIH1y/c62dSjzCCsj9gHPREiSPClLGAbVgQ8oiAeDqQDDCiy8D1WvcAOpNUe1LgZlHEfCE3KOPcpwFIuEaOrnReyEuDmmu5Ub3sLXABQ22CGUDShCSR9saYj4vAAVUWUDqkYhSJ06B3KiuYAir0w9mX5szC1Ney48fhrcaOX74Oq03gYpV2UBudK1+lsikSC3GUtZDMGwwW++jCsk6Dxk/dhCJFoQpURW6uBE7gvLWeSmYYfa4GJvYpvXeGuqNljtfyeovoSuVh64Ag03Ng5DC54maB8Kck2HFL6J3bWT5reA8YN7FKaL82vqdampV6zxk2/zTtgdmbuHHbRdme4kqvEQVbsLspMYJXkwfXmoUHb83zTyK7no1pXnKUDXN0balNB0RaEEssRaU+sjWPAQQ6w4vtTt3qfZ+6J86QT1fBaaMGQ7/j2bfpxElV0gavEqAv0krQovPyHe9zTNYTYVMeY3ANqeBEcTysn74a9rWFJ0dQgrOc/QdvrFWth+i6i7f/mq2nbtIcgH01hBmHcN6NeojkGqMEtiOqpuoibPw5YJvCcqc3epn5b6m9vAS+WVtCD3Cikgs8ALRsvVvSXDeGY5+Nwm/sG6aucYeprRSkDQirn05tOB5ILogCWeYsioUrA3dy40CdjjqSOAnQS7WYGJXNUHwYtIo7tRmD7sI8EBpYRDFIYXPg+Zt4a4Vqko6HFF2gymvJv0gYE9LnrgG/FLG8Jq51HmPUiG4FZHYTfwvUFX8EIMoTqgdoXW0F1EVdxSMWsYj3/mnTVYcvhGcd3ozJ2YTKyq/+/QGbzU1bWTqN7GikhqPZD4PGkJl6xvSpjcQzQGYj5NH8SeiCaF8joFusOahIHmC1oDFvq73lMZ3WEXCeOQ7zb5PE2a/MzU+1zh5w803ekdA7A6BaWdoNgIH4yddkCFg/QkteiF27nHRdQD1avd/RmJb7ccb/4Sh6PF/6w/+TVT50oJ7RUXCjGn9ga99TT0Mkp4EH7rQ+s/WNEcAEInue86C0MkjoYUXAE9nAlgPigvD1dvPh2xNm6TZTlAn2wXxLpzu4WlNcv6VAKL8HaFPE2xyWaK1IyBlMdFia9uFOSdo4oE0geGl10hdcB8JFALgEniG97yPuQeXFq1Q8/O6gS8DIRhH7xKecKRHcwlY/QALci206CLWWODO4hp7/JJHA9Onqc6UQNccN+S3wvj2pM+Y/RSB/oKj6/CRVuANIZ7QSLSq7j8CR5JS4JFWtP9eUv+qsuuPJC75REj+uVDzJZREVeBKpO7+U/u7P2ZdmM+/Mp92Zh6JVnDemcCsY4hvIyjvNKmXHwvImBGkjAekTyMZi6y8s3zRcnEjGPKmmFmAIOkGv4qZfSxKbo0wVUaYKiOTm4iCHlHWLo6M5LVdROHOVNRx9LtlrW+V3X6USkKZiPqH1A0IR9+BtHbS5jedWlbYKP4tigJFmKlTyHEEUT/7SCt8Ew74p0/zosFDIsx8Sd39kbz1nciKW/bbiWL/tEnV3g/RqhU99i//tMmnFC1Sl7jNz77FwCO7nMyyRMsz3ExGxKGjB2HFIPUQpIcImAjIk2grAgsjNz4SYGrdvzJlVaqeD+iiZUMkYUlAmYjqG9ET/wanLK2d1Ba4Ykj8PwAU8amaMHMMu8EeP/2IqL7HtW0zcIU+0irklMmUVyNTWqezAAAgAElEQVT9CsL+cQxd4aVXrYheAuD2+JYnZGD7vkDAfAjzFraB1uNeRBW8zvs+QWcD45HvTVM/IDZpiAoFsVjv4O0czrS982PGWQjVZZr6AYkW2gFiWJOV3CplDK6jz+TRyMo7DGUzrQFLfGXr9mAdhnrfJxu86cc/z5DMJTqBqaj3z5jCNZimfgD3LduphimvNRz+W8zMvKz5LaqTiw9RwpRabcdwxCCBpnDiFcPeDBTOZELe5QyRGbYb5dfxQYPU+gK6QJAyziDMPGO3rOUtRNkdkDaJW8vRdxA1D5Dl2nz9kdTyJgyx03eErcH4XvI8aQbEjG4XU0E3PC7Rn44/LUu03IOzkR81bgHO8Iy9fsmjVNHyjR/GohWQOQfKWds2mqWo1ez/lCpaoLJfREHnGzcEiwzgTewmL3TqRUc1fJ3EgNURTQ9DCk75JY8FOOwJsWjx4wZIKmyr/wtJpXTCN36YemLGj7ZExmqwtvGVM2VVwaYmf2U+rX/RqpV7/hvsb4/lh1zHYFWnJdWeD2of/Duk6LwgdQL4q9PsduHg/DNIxgIgjPJYQMYsrFrk2uW3QtFydZcQjQ+wYCgaTtFavoGh3RkBPP5YrbqgN4hibnR3GOWUFVJwDhtUGKKikKLzpqkfFbsg6gqwjtqmdWDmjHb/58ioaHWfAwLdlqDsEygF558Jyj4hAKIu8DoPyjkRNfpPfixY21FC5/OIsuvASqJsRGHKNL1AjoBV9qSH25hmHzD+pp+bjzv6OKTgPJ4tuCqrRS6ufyvPhJI4GSgkeMaebf6pHmFmWp+s9OuyRGtHQAq1QdDjpNMleSIaCSmE0xS+gkQLxT6iiRbaEPrayBWW3hDCgU1WCZgum/4Xb/1RN1E7C0GtyfaMBTho85Fo+UgrI0qvgU7CtgyytW1ALp1gdSmlPSP+CtOLKCY1hAtWKlyApWykitY6D1lM91lZ7UtRdSfijj4uuPJIVHW3+Y1/Nb/xL9JZZkxc85CMuvCQqII4vDj5JhyMKLtaded/8LgC07UzeLvjRcdVa72XbL2HczvMBi9Z3rQdgOc4aTax9OjpSHoCBy8EopgfO4AlU7Pv0wUWFMKs2vuh1PImQo1Qd4PBhWdN0z+S2NEGhgjCDvqnTaHeIJ1WIe4B+PDXPCC5zYCDCRTRC+Fv6NlheSHMsubfxszMg3dp3Suiypfwi4CtbZe0wIkLkZCGFV9aTFMVkkt/rTj2xtNdWQPR8o0fxozTEJol4QBTXhNBHi2cilZQzkm0SjxBtLStgpQxblQX1VGcZDgjtSkkhQae3FTRCqTsDVABJFocXYcwc5Zn6rVrLIDCrUuQeoS7ZFBqhE5igdrayZYY/YWvti44eXALU6PMaE3YdW2rL2zQmao2CCd16E94bIjySbZ2tyK9xZso5asqtzDVG5mG9d52tV5a06hqzwfYlZVj2O0oRU6vRFbeEcbv3c7V4/8KTmutOPzizoh0fAVn1nkpsGDkTX+Ir+PMJpYeb8MAnbBwcjMVdcG5z1lrmJkXN75CVTkE5T4XNfovScNrVhmwAd+go0BpARp8REcZXvxiSMF5UH7oFhDdMeU1/omHAA2IfDpsSxbqalQtGZGkLyBjBvFMqfZ8IKq6S3nbmoNynzPNzKednS+69kjV8yEAGGywAVQPfEoqVqRPx/2znMyyRMsznP62xmuUX/JIYCoE8MNXYH8lrUR+gQGZcyzgcLMahQGxWnA+svym1esTFD7Ole+w/sT0RY//W9nzPsfQRdWfop0ADRxAMkwhCutFN4Q8YzdL3Rxa+AI4C9jY/VnKxoCMGX9bC+2dvnA4n3idKa8OL7mqsdwP0pVglDQ3ap9p+lF670vimgcNR66v95Jl9r0kSBmPNi/qBJ7WNEoGET2BBo8MOUen5qaKVlDeaf+0qaCc58S1LyfVHszZPUMddUZIUstLn1OvoHzdxHVNnzVM1gbGAtU/KrCJpbe/gBy6AkLp7LYG+zDNzIcUnMcnT7amJXocrFj+6VOIZp06drgbARmXPiWuXSoCOlvTIqq66wgFRI8fVvQCQ1SERQsgILUvU09cQpJNJGb2cctvf9QNfOHv8MJliIoyWparU3XswydeWZZoubgR+rIFSm0sSH7JI0FZxxG3Geo4mmiBI3CilYyWISoKzjkhb38bn23AZLyIJYEX1ana+2Fk1TVA7qGIvQ5jbBsqM8/YI218Le3MvLjmIfUNigqgtRRwzermsOIXgd7MFlYc7d1BP4t8vOU1y+cMwtY5hqiotP+sNLkRJ0ZQgosbEWSyaHo/YWk7YhpPekWUpe69rcvrYqk7lhgVJFp4Q/hE0cJiFpx/Nqn2gNOalZltOwPjqD+t85Bp9v1Z0/tJ1Mg/1u2k47Nc3AhRcjuGNds62XraAbx18qi8812kc9fs+1SQZMfT+CcdNk5+r973MVNezdG1k+hQqwMl6HIlZX5x/Wy1xR82fvd5C0FVtD9C467u/cQ3to+qYVpCtMIphk0IIl7zEC2tUSP/DMiYdpRSQcKBTayVEXdSu3Hp/HJFC3FFUB7euo6Rq9YElZGYKlpEzQOqGgPiD5h6DSPf4MifHP1u0NQ7lRmwnJSGFV9myoCjAoM/HAuTPh2t3Oi90obXxDUP8RsUl0QbQnK3YBbXPuRqW+CUTKpPWMpGNFTWuwCZseiuD1dIzaAFMDKjX6g1b/SWb/SWewXE1o5ejiy/GVr4PFF9L6pkcKO33NVDts5Lsd5TuvR4pDWNkpF5U1GxJUQrOO+MIHUiKPeUf9qkMOekf/r0Bi/n4FHXHYSpDEKS4gQbQjJ8mzD/OL5IzbjuEHuFZFMfk5I3+6dNavu/sLwJjsnimodUXjpRPQQO1w1+ySL9MrBowTSIGwouPGOa+jHcfJFn6o0ou4Y1ipTKrQJsvUIe24S5QGyG0xKiRV0GqaJVcutRYNaco2gxCHNwzs961nJxI0hCCCcmY6BxS59ma+1qDFA/kGctUSWAvmiixVI2aPd/FphuDQINDrywYiw6mwMyZoPzz7G1Lb7xwwBTVDfhjYqPtIrUH9b7JgEOjamoDcp9Di+neCRIRRAo39FGHFhugErSHqiGY+iEGWCLZezYGFIIzSgoK0ttof4FUpzyYvaVzL3mLWvwjsxN6X7RVH3EuP/ljPEPgG6l+t42Xgx11j4xH910aQsXOBj84g+RRvClNoR41fJLHl26ZkV6C1eUgcpk9llpAnyTDzm9a6sgBTwvHA8nZBA6/7RJ3YA1bClR8wDrBpmyKnU3aEfUfZ9wozr5sQMA3jf1kkNQAWwZ2jai4V5w3mlEfbe0OzkccWXVQbmnuGA2tM49hP8U5pwAh2JyM68f/to09WP0+LfGye/FtXaGHLbaElr0Alq1Sm8/kja9DjPHUduubHDaA6u/uPxVa2G0EdtbxC8Z4vRQNYQsNcRACC++HF56Nbz0GhIt+4abMAfln4qsuYmmvo8YnLWoO0aqSMARjsT+ylrfllreYKksCDAKRPiaVl5MH1vTwlI2iqruCbNPRFbc5jow2Fj/hbRrYdHyje1fkWjZm0TqTkBPs9AXKL1truHIDVn+CEe3CyCkVXd1g19qLA+i6k8/hWgV7T+PRGudl5LkoHQuWkF5p7GlC61ajrMh3TJGvbjRW6He/7GLGyGps+IVArKnqQVwHokWPpHae0BUxI3qCsiaM1+3YswFVGQTUYxEK7z0KjlGzX7Jo2BIpKIBxSVMaWVowXnAWyz+SgVplFX5iEsFKeNMioSjYFFY+U5U39cPfw1Bkwe/QqKFATcwc5JHqKIFg75QH8MQFaW3zeGnXtvMCkQL66ypHU2iMcArHis3sV0rvPQqEDaRsbPwUgN7QuMede8nNqcgM7lojGB9FLVylGfKaxRdv4+ouOGbeBDs/USxb+xAYOasDxgfS4JzT5mmH4WVXuLadPSONXCNPZjpSZh9XJA0wiTDIKCS4LaQeIhnhJfrchIJvLI6bjLlNTtFJWhIqKFigvUlDIUlrvtlmmhtZEbRAg2u99as81JQB9Xcf2ErH45qW3hx1EUJ3kEJB/ySR8noeGAvDsp9LijvNGgy0qdCiy5SK0F5bUFfkKmJen2zj6po4JJVuTf7WNeyQO2BS271TQSfxZj9jgsLU1EfWnyx9LaVsRBi3dsYr9iaNiRaoso7bLWFpaiLLL9J+u/QfX6Dc04EZiyIcuK059ma1oD0aTy1gEIi8RDQS5Ke1GxtO7JrLRAt28GeKlo5F+elTa87ihagGfPP4qde28wKRMvpOwZiMC9ctUiaHqDdDC+96p82CSgndTP1QMWUVpAB5K+g3mTKQYVILlxmEDCHJRteYCTTJfjnJhwQ5h6PHv/WcPBvgZmzkeU3wH85c4b6YnMcJHLHCDsKlrJRmH08kDRk490OkNLEDWJDtuPt9CtEMfV1jrW3Gxg66tis81LKdr1NVN/f7g9uJii5espdFnIDuXpIaa4KxYOXtgngrLXOS7mBoaWm9d7q8oOXfRMOcAydvJg+nrHXP23KP21KkDK+hZ+I/4Wa2crSBOeMl03dye6YcnEjXHcQfrH9WLTUeZ3UwjifUDsCsQhItATt8ZmKemnT605FyzfhAPKGJGoeCFImAE5BSoJv4mFaJfyYPlAUPwn+wo8fDMk7g5ca6hrOUrfw4waXKVrmG7AhdBQtBlG81RfeYs8iLVe0SgfO03oH9ws6LFFpn5E5Arw5SJdsWGcSDuCpDDrTlNHoiX/72qzsEA8u4SDWbdD+iPaVa9gtbX1dmDHDjd4rSBnng6/KUqsNx9Dli7gZQEQrkGgBwYjN6s1SN6NAZmjlXI6GEL1HOYY9+uKhxUbFVD4or3geyJu0NULtCkz7aEO4zkuxkRXt6infxDEt9hfLvB5bd0Td87G68w+K2hvoFrwhXKwGtCFEG3LqjoMEsrWEmi84F63EQ0hoxbUvB+efBdcE/a7QohcEqRPg72PDZDDAMccSZr7EjwEU/GLDx9XvCjVfxNsZHI8mMHOOKa/mxfYHpFuRVk9ctdBZiyZaPpJyj+AcR1/vxfpkpdefXrSwyi4o95QfRN9pxf48EAlCXALrCelvz5TXIHIP3Ik+krKQkguRtbfxlSfqM3BJ8PmxjQfpp+BEuYILQ4w52Ox1IwUgS91sXbWkFbgS9P6z+8DhGUCRWDCmgfkfHKiRxROtpbSVitb7+vwuv+TRgMSB4KReTnQPJ3pRcxa+caekRl57g2fab9j/3wGakpy5V/GqiMusNJPaNL7NP9VNmLGNZ1U019wFMglZy1uLVYVFC56Xej4hSnix/UH5p5yKFke/G5nLNPsgdgQ3Cry/BMmjgMxKGqGQZJhJPtaGUPPF8OLLtqPBgvcjS2Uhd5XWnSTIFRn8GxAeCQcYhBl4DkuvIkmmihY2q1A3hFY1Bhiv7Rbazat+Zy3We+j6ckVrA0NjV0VQ5hwYH6KBeAg2VLa9HLDhyCoFiYcCMuciym/yo/egiCRUuCDXsDtq9H/Ad8s2cvy4QTjy2py+sHisJsONgsmNt7I+knJh9nH/tCMLVi1VkwAUWYvYAGwPCyRbJLCAzACskaes2M6NWqJ/9fldwuwT1MB2wYXngvNP6somtvmnbeHHbxWkbA/McA8tEqb2Sesuk8qYW5EVt/ySR5PrDibXHdwprVui/qV/2sSJKTz3RWK7E+XyOk9Z9L730ideWqKGnaJS/PakDgFb3RyYNedUtBiiInTWMhz6xjj5fWTlDeAIUtSSYXXnkL8sfj3BkiirDsk7FZg555dwgKWsR4kfBV6qoQXnresVUYJUuH7JoyGFz/unHmEAzKpfkDKK2WbEtS/rBr9CaEzcVJayQZh9HMle6W0nyveYyoNLPP7qf1quaLl6SDeyorI65nDTcYajayN7ze6oQ1L7tvCN3ZGVdwKzjgVkzABOGYgxKG6qhDkk/5Th0Dd+tm2hj7iMF9uPcFK48tVkkDaJavpEqxbJLbULbwh9xKUh+eeWf9ZCb1xoWGTuRm/5EmMQENtLQ99KG19HBJ1AdZY5F1l+U9r8pqz5t/K2d2Utb6PCRM2DyPKbbnyDrzR7icqX/il39wxfXuQWmLaFveAEiO5y3UF4BD7BV8IzJBPCXlKUe2gsWCqLf/pUzJiVjT2i/AZba/UuZ6marKJ18G/GI9/pBr/kGfdx9Lu40d3kFmbWL2kE65PwyIKnLGLnTx7lxw74xvZz9buw6gLkKgm00GHFl2GJU0BQab+kEUnTb/CJUdr0hmkSXAqI+vu4WqpdK2bsr/7pUzS9LkNU5CWuXrobV/PrckUL/cc6TxnVqoOOWwBoSDrMM/Xg8EpAZpBwACKRFl8OyJiNKLvON/aAc+hCjDlTVh1mfkHR9XuWwur05gP+yIP8uCGWst5xUHGvLSeD1iu21k5pgvRLsFFxsGsFZMwsX7TQvzPl1lEJyT66xUflJYwXGuk+HTsCMyLKriPKFJqMBeUCNMkxWbGXxvaE+omoyiNWSXCXUHGGi433JlY0R5zrq66i6dwXK7/0dUPhXpKXzonJ0S9pRDfwRfo5cPcS1zwkQ1pbt3PhlUARFT3+rZRkB1Dt+TAgfQrYyEi6oYDMWaSyAo5kBfiMOx1KkvSzlq1pQZtA8LXLOhpmfpEMb93MNXQRdVaOYeDA6PwjCq8safhNSNFpXCHf1CNv/x0SP03fJwuMBLadiEeQE4Dl0t2y/F9XJVr4MdCSjfddQLek6wBkrbE7oux6QMYMCg7ANfZgGDu610dSqux5X9P/KTY7gmWWZLLHjlX4X5aZQaxxJA7AyoGDbkSNjCi/yVLWkbTD1nHlGDrDii9bRYuwH+SW/ruUlqOol90EiZt9VK4e0m0UTaCLG7GJoQwx1m4TJGnKZ2BmOGOEp4lWZMVtjrYlKO+0pOyst9xuynR1l2wgnfxDo8tdFqdx9YwsFejqti6iKlz+nMAlwYXetsmn9gZH36nc8176WSei5Z94AKJI7v9cUvcqcutQ9/zJL/EQuE6qm/whwOkNq0UhaYQfP0yipZtQ+D+wKRt282L6UKRGVIzcwE9yovaQvDcVQJdSd9809UPyKYDeGif+I22E5Uu7/zP9gb8KKOFdhJlzJhJxEjP7WN75LgayUh+EsTqPLNxRTjMrE631Xko2dVNHesKjtpJ07Xupay4PQow1RpRdh+AJSYe5+g4mub7RliO2pkU79IV17bKFNWEpG33jh8DgGD/MJE2HC3rE9tahXyTAow6BAMCl31YMgqSY9oWXXAG1SskV4EylQKqRyNlEq5j6gsA1gOoCwhZbyPBf5RFJHZ6B8bp855rrdR5SprrVJwS04bD1CkjwDM5k6Tu9JVXyujuCxAPc6L2hBeeCc0+FFl4IL34xouw6Six9J0r+Kdb1Co3ZOg/JDkFMROk1ZeEQVbR8QhLd/YyJNQfSLWOl/WfU2e1Ox/ipLwoSDzs6lSATiLT1dbQgmGbmg7KP4/WHrbbohr4yHPy78cj3QLkxDeYv1Z4PBCnAmeEjLhWSQxCcdzowcw5OWc5cZtBuOTBzLrz0WlDOCQAGqJtIo049UX0H7wMhYmX9q5iBUDv4OdZak04lr8XMPs65OF/3yiPw+V+4s+WqaoIzZ5+6Z5Zz48pEa52HzCuikALdB3U2mn9Wn0iSowJdYWuawWQUvQf4PWMHIstvMZUNEFQuth+PBCrJUtaLqm+p+z6ivnVAdQvxMEd944f5cQMIL0Od69Q8hJYw9SKCQTQG1F99Y/vJMA6zkRW3Q/PPorAuuIAvGc3WtiE0O6UZxIU5+t2wj01o9whYAHil9vU6TzlL0yEpGHcT5nB0Haq8bvQrQ2nxi+7I67siz967iamPrpkJyT8bSh7Nc7rP53Sfz5y8h1Ja17GUxsMpjYfRjWxdB1ddt8WXbrkKi2+Oa3khJHMyo2XCT5ZLbcOa5DdzYlmKOjLijNV5FPUDU1YVkncm7ujjrAuwcInq79nhBERJQMYMEid1z8d4S6bu/dg/dYKkwQJGaL6pV5h9PKLsOpWllBSk5wBpUHkH8CXJIyxVAxIJkqW9S9z4KpVFVLPvU2TXQsLma4v/5COr4scPq/a+HzMLLYw7+tgv8TBVfcIQFfGj2lYU8/sp+nNlouXiRmz3S+TH2L0+7XPO0CmqusuNBvc1lBB9HOjZ888iuADQ/ciq2Np2nqmP9hZhiIrCS65o+v4cXHQWH71QPci3B51lSeLbHhQcmWPo5Bg6EYcWinAH7icLowdBTIPUiQhg250UpE6IKu9wjd1UxReKuQhhh6huRbZHwM+CMwhWr83b5eJGeAYmbOaYNnNMNDjFeg8JIyhB3vCwZvymixux0Ue/1TeJbdibsxtek0xtR3DWhKu7GI0WIzTZfOAFauwsWr7+4gfa5gccld2ZfCtbu5lt3MQyCFLG49uvbOc4UVQ8xVRweotHULqPuJTcgNh9vRnikqDs49Fj3yaegCgkpCvkGJ67LFWTYvd/K3b9N3kQeg+FCyOF7UNhzjEyZhrgPIAXWl7L1rTy4wbsidyqQLwsSRmgroHiroutaggtugAR7ijBYHVDf0HHuZjZx4qO38taf4vHiKVsCMicw4Wjx74lyQWshhOGqMhfX7vzWSowUE+uWLQ8HHy38CMFZs7SnoGj6+Do2pmKWqL6PkQrzjstSB5lEMWAJHCIhOsjrQhIGVHs+r28/R0+7VeiGDSzpMcxihaJP9naVpaqEWNtcGNIq8Ce0IJz/injQDeXNBJRfjM4/xzEzrMREpJOrBAhBeu4qLcvlt/CtVqHfOVmt8Ast8CsDQwdQ9GEbLuRcdVh2ZNR5m4faVVq913/pFFtzVnPcCsYCnW6qmQose4QV10ssdxsffmvNFmifa1/9VH29GdEQi2e+p7+MdsD0rf6JWd2Xw5N6cfXcUaR3oLzq8lE1N0MLXQSnIFk8x+SNLyWchpWrejxb8NLr1J9eQIzjhgnv0eTW9v/OeYGNE39oO77ODj3FD9ukK3rgLGD4Gz2xAGSPAhphehi+bH9oQXnNX1/jhqxs7ojYYYQmwf/hv4iauyfPNKGBkNGFPPjh1A4yYq7j9KP/zUo7zSw2dlsklxtS6ChZjXdssx7Vy5aEfQgQGA8JW1TLJXFN+kwgiRja5UvmCwa+KZeovo+S1EXUvg8KV0lvomHOPoOXAzPY5baEl5x2XD475HVdzjaFpKh0rkeCd9Cy7CUDWxlnV/CwciKW4gFgB83KEiZIGoeoLcvU27VekHYSDVASO1WS5uRbUGdlKM8S9W4gQGevBuZCyxaDGXzRh99cf/zm7mAc9/K1rIVBe3v/tj26jeNkzdQ0jY/0Ox+U938MGPq/fZ3fyy4Ok+ToiW+tlz7wEOwwLNoIwsakGA5ioBUbnxDxeHrwYnd/NhhPPa0RkLDBMmbOStD4m/wVjluMZiKOkHqhHb/Zzh8FpBj2jrKR1oRTsYWQ1Nf2fme8ch3eBlBGZnlt2Gll4W5JxBLqV/CQThTJB7kGff5xvZLGn8js/zWiImmF65XSP0jbYTznnHyeyoXt4+kPKzkRRQiGZbK7g/9kuwoR7BGGnZv4cXjLnp2mRWLFgxnnd31DU1BfHxE3m9MRR3efPtIynjGXqaizj95NDj3FEe/O5hcu8jAe33kuYsOdSEDOjWKam/rBr6UWF4lGfT30nZ6C6a+bf9GRkDeG1p4QVz7MCB1gq2xgI9z0mF+7IAw5wQZ9dgCS5btBYaAuQDCsmmB8YNQ6wfFhu2WlObp2MpBIOsMoXPTuQVmCUjmmejy4ay+a82Xft/+7o+NU7cs597E0tX60mdNsy81HX/QfOGdJQTJ6U/NNz+Ja5tOHLiUOAhJZ7kSU74/u2NKVHwmpny/vmpW03QnKGVAklSPpwtuZLgRiLJd3AiWYXdYycWVWqK9pQtCzpJIlDKeaR9R9yDnIixcgO1oe5s6RhxDF3Y8AQ1e/+eqrvc1+6yuzVjMTNOPdEN/oaWo0X/hAtRM9Ni/VF3vW+XK8qbxyHfGI9+FULy5AHyTcEB/CGxuKafnY+ce+6eMOzK/e8t+kasWUitry45wYwb84ugIBiADLLsBgECIzG2HBZHbP7Oo4nZA6hGmtNK2dgG2EJEWUqcyzrNUlsCMWd3gF9Hj38pb3w7MmgvMmmPJq1Hi6NpRhq2sh59yjhE1Dwwj3wTlnESvT5BqCJtZIUgZjyi/yY3qQhHHcf1MRW1Y8YsUOms7CgaXwRmmog4fkNA03cKLdxemFXQ/l7fnxFa2br23miHOazr/NhakxskbTXN30SfKUH+yrFy6sMg1HX9QfOyDxBOPm+buNs3dTTj6Q2jpC6hVPrJqzyDwy0qsH81om3F1F2/hxIYWnMnttCvESvafxuL3xAwjJCk8oRWPJu4QBlEszDpmmvq+4ApIl27gi4D0aeqRlR/dZbAR2ZqmflB2vidp/I1u6C9oLap7xYqdpwrPYnnjke+NR8AdC1LdK9ImWK9MUz+EFpzD7fERl/nGDwMRDck2U3B1HhyZTfvwWmorac7qsHfFEx//qQs8zaqF/0yR3uJj2wPY2l3EVjcFZh2zYsltynQAFikbmdKKcPMlYcYsS90UnH+GZKQAMmFebD9VV46rQhlYi/S7BHEDovq7ovq71v6tfRkR0IlrX5bUvyptfSOs9AIvqgujOdmaFq6xl61p9UsaIUMz7WXKqjBXLkLZ8Ez7/MgAK/BHT2J+D4yqNxRZdX24B/yV+ZGx1ZGx1eaBSzslNd6yBvOpj6zyM3275ebH7e/8AJ/v/th6/6vGqZuW829h6VqNaGEZQ5nWB3+puPuIGwPM2Bu81dKCQ+LE+h0hBW7CrHVeik0MJV9tP6rhxi8/w43utXKb2TYI0GMkwia44ByWB93gV4GZR6nSJUg4oBv4Etmdosf/bZz8XjfwhaThN6q9HyKrF753sbSScLEAABzuSURBVEzUyD8gUivFvK4/AEcs48R/QvIWeB/7xg/J2t5G9ZTefqTu+xhIsG1U5GilZRDF3qKydR5LYWiW3y1Ll1x70SJNQA1+ySNwTtW0YTmB0yppExNV3Q1Im2RKK0IKLwhSxlmKekBbkuBLUOvb1jp8o9MMS2UhbfMOPF6INkjbBt0qhigvgtSJ0KIXmLIq8CyiABRZalsoSup0WSpvjii9RuvNjd5yjihTXDCR3mwlMAkpfR7P++YX/7v9rf80v/gHLE7UTPPF3+GSa5N5+zuO2qovIfIn/BRFtNau5ivP1AvqX4c3qV/SYXXPRzGzj+OOwrYwvPSKX8oYVboQj6pp2hqGHFu6JA2vSRpekza+bpr6wWlS7fkA8U4juZLUv6bs/CNIzsy88ch/qOcr0gmwBx29kGiZJiEiGa213pGFBd0nV9MJK7p3VaLFCk/hGnZhCDlVBrikKwfpF1yCdRUoZiRTUi7MOhpS+Lxv3EBA0uHw4hcBqyYpY2tb+fFD1hXMYQiplS+Wh7CRpDkfYGbgNTgWmDkH/v9qi2/CAQB82OQWkeH4JgzjxjvVMZJeFbUktsvM1e+Ks5wW6Ov9TN0eESU7gnN2BKbl7Tm1PcAOltnK1noHJbRc+wBE5e3vmk6+gmSp5fqfLGffWCBXV/64NuL07o+4npZrHxSd/iTcWBkZW+1raBWXnqXqFVc0LRwL7+BHC6MbIKKFzZcejQJTUReYORczM49wTyBdZVdpa5ePtFKYNYOCkesP/BU8XHo+RjKg3f8ZSor232n3f0ZdnXBe3fuxdv9nOHZWROVVjN1BbeAZe2Rtb6PlMWb2seHg34Pzz1JNLAxRUVTp0EYfOkOw42Ou4ZVViZaLGyFYyFUP/W5TsiHffgRfwMIArlmJB2FvFrVHXPMQwiko6lAkDtCQiiCcGTJhIf5U2osH17MgQ/KGs3W7IK4PROsB0v2Qwgt+KWOhRUCNBvTiNj8UK65CURdeeg3Rsjow6izwboA3IrkA7pQAaDBIVxyaPR5fOeDiRvAlWfUT113ciHTLWFb7pKuHlfXFMyQJT3ecaZy6hRO+uLaZ1ntfNE7eyO0+X9AHvC5MRX1kxS2WqlGgra4bu1I3diXcVLXOg857g66U9tudbV09JOuchT+Mrxxkiu3WIdsQmGFfnTxqmrGfncR1r9DOXaiwrOUtWL5m5pVd74MnyNBf4Mg0Mw+IJBsoSVL/qrjuFXHdK7qBL8V1ryAJRKzj+uG/+Mb22/4XhslHXMaPG0LnK3TEAmaO7o/8khY4X6pye56p9c+pQK5WtORpzeT7foECAOnZrC6GJE81tTuYZGxmtraVF9UZUnBemDnHM/UJkkZCCs4HZR3j6ncx5TUcXRtAEFFw1Kgujr4DGDbltTixFPUcfQdH3wFkd0kj3Kgujq6do2sXZh4NKTiPHBAg6D2E0NxHhY+Qdi3wguHHDlD3h9QW0vJAd6N1jiHSVcx5EVVBOtiGMXVtW5gaRXpLy42PkMy03v+q+er7KK2tFDmtrXj8piK9GaBPbRfchFnQJGULS9vhLbXCEXcEFyTuukKbB0xlK+2Kt7QuJI1+EZWRJAM9Ca1/ICKhqS/EfB7v+kiV4Be0tQvuIuOSBOedUu75I4p6bJr+UbPvU82+T6NG/oGlKGrkH1RB1fZ/LrY85MfSdWagD4wfxuerwqvzmc/Pq3s+EiyUK4aoaLsfHchCe+Rn8XW1ogXj5xCshYweAgOAzzOIl5M6JGCoBSJVM9ewW1z7EGgiiWKeqY+ovhda9AIllg8ELkAuYY54M9KzjSxg6BTXPCQD/o6RgegfIqoMCDFoU6yj9nCjQK4Ag2+DaC1wdXE4a7E1bS47xK4Lve7xSLi6izNarHi/hOrhxmP329/5Ac97dNZqnLwByoxrHzRO3cQ/rW2m9aXPGqduYgWmq7u4ePjmjqA8aOcOwj992jOyHLV5K0uzul2iaEdAMtB0U06taFh5pn2ClLGY2ceIRC1m9rF+6C8k21c7VZdgnQMQAaNLkDImbXoDSxQtoxv40h/i1HST2/gF727AfwMIbgSvdaTC8Htx3Su09Qr93a9VtLYHpC2xbbOeasBAvBt26vidR/Los7Vgkgf7Y8KBkMILwsxZjq6db9oXlHVMmHOSjNwzE5gOvvocXRst+cXuD0yf8U+dEKSMhxZeCC28EJx/DlQjCQfJcIONQMtBDcWgbIAohvpdgCSO3otPgFSBx3nSn6KGKa/B85UZlkyNVrxdmCVJbpQkNxJpXdzofaqc7orDt9re/Hfbq3/HYtN670t8vmq59kHzi3/AP61VpuX6h+1v/afp+EPfKIt7WFFYbG1YXFN4fJNnRLmy+IiPqhVwgNpdGZ3nImNhQ7vBSxaReWhHKMTRe+qEyKVxX6EMGUKyLcR8XrPv05TT84VXQSOv7f9c2fWeIGWUG91NfcfZ74XwP7AZYWuaOfpdKLE1zeShjm7whB2gFILfCbOOhZddjR7/FqEE448/Tpj6e0jBeZpuA/9LcGz7Ru8F3D5P/ezLv3ENVi1Xd0nF8IXa0Su1o1eS207hHoTw9WKAdaK1C9zg4odph0sGUcLWdgAyQ9fOIEr4sf2iqrtE1T0BCeVka1qBYkXfCYR+NQ+oKaL8piBlnBu1l2fax9HvDi26IKq6SxIwAPgdnPYhQIYdOAJhoSGKOXhtkkAn+lsQDwPKgOqCMOuLBxblzfSQbvRWoJQ59bD14dctdz5zIjBvfdcO6T+NU7fa3/7eSQGKHuIpfgXRnb7dcufPO4MSXT1lG3bKN5CtcvWUs/Udlvt/rRm5Ujdxo+HIdXXT/ZqRS6LKO5K6lyW19yXJsEtMOHDfMPL3jLE/bGU5oadebBpt2KkGVICmje4lQJjZug6OvlPd/ae4Y6AwRMk09QNyhSQdhVaGrcHjwlJZOOCAfFjW+jZoFElMfcqp+ZyL85L614Lzz/omHqS84s2mhuNoTtaOXqGxaC32XGt7fQ1Ei9Ygea4dvIu7nqVq5JJMmvzYAWD/WLidgNOXoZOtbQdvLsIMLuKpE0GZs6FFFyIrbgWmzwRmzAZmzASkTaIUlHMyKPdUAIm4DS26KEyf8oPoPnUsZQPX2AturQuJ0wD6pG3nGXvReoUULT7SChqhCh5FnHGMRkd9WN+EQ1v5SehKy/U/tdz+tOXmRzg5yskarlottz7B62Hj5I3KqVdrJ+9i8Ps2QaqhcI9XAPCEurgRXGUVkdSsyLADC42dz/GM+3nG/YbCPYbCPZmtRxonb0jyDinz+kIMpYA18Y2Oq5+Jqj3hRdSgULEubgTyevaSVBoK9wiNFjdBElU5hDoNYrQq6gRJh0KLLhoO/T1m9nHm81a4BvhNtb8TmDHrnzLOA5NjM9rC4Hcx7nbS6mgNSw/2yehu37ihoNxT6u4/YbBv/uX5pJNgNSbqHkAMeBuJEKnUrXEPXns/AOrQLye/9qK1hamh9hFAmG1mO6askh83ROIM9zo54RDFLEW9b8IBBOaAQFjiUnBQ1e/mkvhaQeoRnLhRe7hRe3wkpT6SUvJw3OqbcJA0EZZSXl1FPtIqQE9Hd0eUXgfAFKCcrOsVEJ7ZdPHUBuM8S22fi067EvyyNFYCdz9jFcCabHBBOF+tbjla7PamubstN2xWacrfNU7eqB29zAhKKB86zxGBDsPFjdgpjJcWjm3wVi229qJi671k29jaLSwtjl++3lMKd5FUbVt8rLGxNzGUtdc/Shv/OK/LSou5XZCAu2tBhihma9v806eI2gfxxx5XP7ApD2fmjZMQlU/e/i6EPqq47Ztw0DfxEA5HiDIgS4mHfRMPRZReE0GcpHvRE2BuRmtg+tn59LPzCccfq/e+H5A544jm2eb3rPjPnE6DxS6uvWi5uBFekSWLMZ+xNc3Af5B4iGvsgfD1mjb76cumQvCRlJMeyj382AESUdHMVltQGDuUsX/qdkEZoLWxOz6iMQaRllaSfj57QwrOheSfBWpycotIrld00knbzDDDikqYvcWVxtJeaq9xRen+CVZqNGXJdMbY7yDsQGa/qXwQhd5J3Xc2+dh/mo7db5y80XzhndaXnO0PVyNv7/zQ9uo3Lbc/bTrxcsutT1of/KVx+hZVmFuu/0lUOC1OBAzhBobOWH+KHzu80uDW1Ed2mo/I2xPbds3T34rx3SmtFWgqHbUayPOAF7NfkDIua/+t4dDfC6+CPOResi9iyK1LtecDpwmp5vGuEvmGFV2b1w1+pep5X5h5lBu9hxqI0DaCRVtXyATu9DFXf/GZiNZmtgGvVPiB7RlxCUvVBOq+JHgzIScC+682AYPlRVzCEJcg8LuPtJw0QJVDxpZQAcd7Wepm8jDQishWITidTR8IhVFgT/xHtIy4hB83sM5LUdx3iiFfQD2Lu3uDl9xdCK/G7Vx9VteZ7QLQ7W5ja2unHxDJje5+Rnc/o1dQsmbXm03H7rfcAqDTqtJbILEgtLN3QJZm4BO+Tt1EomU592bb6/90949Zv9MK4QlJ3CvQWLWCuNlrlXH3M/rI7IQtm31UgJ+kdSP6SpSQwS7aAjJmiNr7qq73EFK+9JZtHbOdx7AI0TLZL8w3vQ5IjsQTj6WWN0OKzpNqw94ldhz/m0Vrm3+a09fYgt4nzLDNI/23BUkjyP/KuvkGUtUnqBkWVEWOItL4Q4Af0udHQNYMPo4qi/XIR5Tg3aDj7SxpSVTxPmNJr3twDpqCfgkj6qpj6xYJrIin6WZunCBpJCKmyick0Y1r8NNU4J/AxKw1qyuH4yoHkg9cMV/48ukErPnCOzQwB16saqYeNJ57O6Fl0s0fTlY8caanqEKTv2C9pbZnrfKh0WWx5f147QLH0AgzU15Hht1wEhIa0WAhv4fIylvKnvf1w1/rh78usxFc0yQqZvZx2Y1/RR/6Wtv/mbLn/bCSy6EFz6MIaSyl1fUYDSLanpCmVLNXaJ63zA78X6uHfbp6nsmq5eJGpDSOUU+WjlMZroB5pJKltgRkzCAZ45LR5cDIqwb1q/O7HN+ORDHsLbXtsFPXtvsmHY6suAVkg/Ia4IXH5eGU5VximfLaTQz1U3t0s/V7/AwWNAAbvNVpTdagIYqqQ+qGO1uYVuXbFl58y/UPLadeW5GAtVx9v+n4w8bJG22vfUNLaUf/WTd5h6+x4gbdhDnFQ9dQwKiQ1AF2uDWS0NPNjCfe5eouprFxbNipDEg67LjDx0NA7jsqmIpajqHTN3YgIGMmKP9UUP6p4MIzspa3cIqsuh2Uf0qYczwgY4ZHUhUBiYDtxI5rQ/7CAZoSK3f3TtU6GyDmiY3/CQo8K9EiIdgqd6Gd7lye1hwWTzkREcV4k8ZSNrKUjTxTD8kzMwQk5rCO7YUAKPJawC6RnyA8tsTStPhIK4CyV9XEjdrD0bUjuD0/bgi41lRNVCXkEoONxom16kgwXGOfR6gVDptmGROndlQeuOA4fsVzD1vvfr4s0Xr7u4Khi7TzHrXC0NjmTQxlWst0sL7MxY0AbjNVG7UALGJaUPd5hRe68eyBWGllVvk1sfYAk8jHZDh+8hzv8OygWHBCefLOhWThR6MPB2ByGuDP5dxuKNyzyvY/u9ufoWg5Ntrcd4b6ynHMQ0wncJ3sQesYqI9AYbgggRo9Zj/1IlrxILSP2kJVSCI9LPyLDdbo+I/oyupFy9VT7i60Rq/K65oTJVp4REbO7hlr2jUTGlWWs3smuety3cSt9nd/tJx701HAEBa+7Tf/aH34NUuWu4Vpj3EsKR3IbLXCPrYLs7Lap5EH8XovVYChlqXZ7djbLm5Ewf5zcCD0T6VW5bTk01/cQWgL+9a5L4hH7hmYsIGh2ciK8grLIcPbOnNQwLuJ5WW40Xu38kwIAop5+Z++2auwmC/zT39S0drAUD9xAaHOfqayAbFo8OMGeTF9gpRxiJ8QP8yP3Q9sdeRFjs7O2ku9d2mwBYnstGLhQmKbN7Ojl9lfixXb6peSVHsgdvc9veVmZtf5xfjEhQl9bMOedMt4umU8s+d0ztwrKLU++Ev7W/9BDv85058q0luYYU7YbTexTY1HrgMbIWVmxFUAVniZKbr9gaTm6jILr6iYMrONJmDodl3R/uAYC0kLZe1wtrQ0PNH5Bo86gtQ8U9mI6PXdQ/LYihofUQFT04G4ElbUyJ+y8KKixY0Cv7q1Ta4eMo9Fw3jS8ebUnrWqN8hQQGBhJO1RTqUUh+dZTLRCYi3M8AyWqomtafUWV2z00TJDnUzilT54ZvdVZe01dmTmNr+U7QEZNNHaKapIb54QZsz5x3S5ukv95Dk09AOPyOBrivn68rzu4zwig0dkOLYqzTLB0nTwCOvauNIWovI8cZabzZT8dDUsdpcbz4APmbQyjJCkTawov3gAoDFERcmNozwiIzj3FLkENVHtzojrEw092P1thkcqycdmH9VTn4ppDXumX/9ru3+aRzBACnjizID4HkXDpcLTb+VP38vucB4vcJWt8YgAKzDqu53huZ7BmZBCMqmC9EzzXsQCDd4qH2cLL6Fu4mbm5CdJltnc3heXWZu/In+J7o2vGtrso0KBxmkVqvL3bPdP28g00K7/cr5KU1sWgzKjRiKeORc3wo1riEje7RmcuTOiEI24B8k74OJGZHdM86L3WOdGcGZA6uQv5wGX35L/8gjNZ4gyl3/D6kvuCM4LyTvNMXRSnIJEOwJSnqlE4cpX335cQ0rD4bx9L+Z0nuBKAFbDCLGCnnABAOlV2/mVqNdx3jf+wIaFLnqbGMptbC1XZPewxIW9QlOF2cc3cxZlF8UlV5rxiz8kLt6/0rscy6/fqcSAZsdfnV7ZwNBuYkJy+uuv9yJ9Q7iVn+gVGO8VnrHO8ydFCrsF5eDVDIvBajIkMs3sgxgvEE6XMAsz1oZvxE9RVH/kRn7XUVPbLaxdWOkk2OzzBPzRYhXGtlwqPXir4YX3OJKnD2VCrVySbOcPpV5fTX6jz7PSSa6mVT/lvf+VfPAqN3pfdMn+5INXkw9ejdt/T6A0+8c2bmD81G+Rbf5pVFni6toTG6fTWqbSWqYW866nlqfmQZvkl7SZHbWVF7s9IN1fW5nWMqXM2YsdgVfTxbq8rk2sKIEKAj3yiMynPvywpGVBGU+z697MjRNV3eMb6gLVa8l+sZo+cbw3vnF6RzDpMLbWJ3bH//plXqGvWj9vK43lQygqMUtRw9HvxY3hijKExkaq8MASJ6nwkdczZVV0ImtVE9qTFJ//XVRpH67ExY3IOPISJlLH1wv2Hsf5xTLuwoSNrKj13hp/Zf4O39WqE6n/Yii0Pyb1+hPz2rxdru7iTUy1o0/+E+99YgGmprHhtR9jyvcjeOQTyzstUDb8godgtdFindb8q7j4yxKtncL4HUHZDHGVt5QOV9EW2UkR2NoW91BYNLbzjdqGa8KsoxSpM+8krHSWLm4EW0n3+eOJ6QdLf0X+E4cqJK3N0PObrLm3n1jyJyvgq22IKR/M6T6xw28Bq+6aNMAtIDY8pws7kjxFnTuCsrfw1v5M+BQt+blu+WWJFuoFXbPzbZIwY25nWN7OsLyNPpp1HpLtHJ0guqNs8DxKxf3nw0uuhRdf3RFK57XdztHhtFK97TaObqO3orD7hIsbYT737pqME5Fi2c7V+8Z2V9/790rbQ21ASN45Y/EzhwtS/3E5+W3sn/oosZxW/fRlfomitZxe8DP1II/0IF0JDcnmeDti4USffvIchqLZULgXpaDExc13Owh5wxnL9Y9Y4SmOda7mStKBW64e0urTv+NH7V5NVFUXN0JR2LOF8wtSGLgFZIXHrIpOdDUd+4u699ckWuvcJZsYyurDl1Y5HWkD4OkfU334EkqlgxeSWp8jqu/Gzz2KmZ2XpTaVD52nlV/9Vy+iysWNiC7uWX1V4DNW+uKaqGdW2Zh1HtJNDKUmB8Ij/V9ycSN+NaIVGVutzGxDjA7PdOTCU3r0LTOy/D0FU++FJnY5Be880wastPLS/jOysnOanF1eorW0hq+0GbG1U7JUejTnlVbyv6n8r0C01rlLGo9cp2HqGqduBmlBk7G2yU0Q03ThXaL6ftre242TNz0iFsTFWoP/WjwS8VNXXtx3Kn8AyGRM7XdpZmtV9x9o1VYdtEZdoF1fzVdXd0ntKJ3ecDUV/u+491cgWhGmSqGDFGkaJrwjV4Wmczp+FUPPu7gR6z2livSW5ivveUvr1la1zZA3bfDW+MfWro4MkP5CUaS3KNJbpGXnMUcsulI4BmEpqWnNrcPrPaX6kmHsVEL9r//H879c0QoxlLo/A7Xy0uONVq368avyVMs6D4k8tbl+fE1x4uSq5eoueRb7zABVoa75HlF9X3/gb7Gz87Gz8zEzj4xTP0SN/DOnjy5jS/fDin51fQZL8Yoa8Mss/EsULUlyg2foCsiuNjCUykIIz+Mry9Hk7ELJxY2IjKuWJDegxNE0bxWsQNHHiUxHMeA0BftCYp0zZPyiRjQ0ujxl+F2IzvoCUPPhiHLYMV4/8GfVrluRcXZOi1W2n0io38RaS+v5KtvzS7v9lyhamxjKZb4I3YUJtc+95rKDwHQr1P7dxFDitH6nqu7kbxpf+abxlW9qZl9ycSPSxm5RC9PyG7xksvoHKE6foeboaqxPtJqf0VfNvj+aph/FHYVgPChhoUKZlrd+zL00nzDzbURs9SrVnts4utDociqX8DN6qF91tb9E0eJEpj9x2LZw9KJUME89tdFJbN4f1w8ytlgyFO4NS4AoCjtCCyPiVmurQf5XkfW3C6b/6OJGBOvXUkHiITAp235TevtR4kk7Zy1NtEpvPyolOV6MPW/slNQgs15s/dHo+ueUBYPY9OevKVvnuVRkNx6Rmdh5kxPpBJi/WE/+v3n9lyhaqiw6xwNtbGLK+tZ5yrbznuC2VPbiB47W5Nhye8j6pGPf+kWDiYmWzPuec3EjXHcQlYdeXO8pdfWQCdMO0cos5vZHK4a/bvSG+bqZG7OZGxOsL/YOWi0NpSLdzkCa0nYy6jBQ1S4nxc3+gFu1Yae8dvQyhqps5+i2sLQs3W5T2QLsZWx5P4K8lI9ciczuxEyguJ7/yzj2wM8mWuu9ZFSqLWrLYi0Tm52BZbZxdOHpbfF7Tzl1E6TWgPKmPaeD9cW066J4+/rjFZmvbgYpoqXa0cveQsC/uYcW7hTD4YRn3E8jdaHObNrtP81XoQZsDxt89NzovnBjpSqz3XD4f5YjWjGzjyFwUe5Jy4V3jVWjNSNXaB7NysxFX23b2Fppytp7oPw0PfYT/8vPJlrBuaeeuOuj9kVC9VBC9bDHql/21Do37JRHmBeI1hammtRMRvMMnahk2QGrhtAtKGf9TitFM7WSnzHPNnS5espcbZQvwui65Jl/pp+dTz2zgKGWKm9xsz9Is3u28BM0vZ+EF5/Q9X6QOPNtzpm/EpVXZO2/3ciMCiu6uJljZcZ1+mhb2dqs9l+l26/Tx3l2F38e0fKW1qFHit/vhFGM9rRe0iqtedi458klaTcu56tvysHM4+/jkom1h7RF/UJNETX4gNI8vt5DwiQKd5Asubjwz5jxCCuOq59yXRi7cSMzSr3/I0XX73SDX6bN/BVJVMEVELOokX9ChDjL6cXaHF3cE181uJWl4aiKEhpG4qsG46sGZamgGk23jIcnWV806PbNPirpM/CeXKxtv9LrP49o4c7a6C0PiQKuvMUSX5IVP/G3xX6lXadu9tBPtF0crTz6mnD0PwKTVSXt6i7xCEjwDoqn0sJo83Zv8VFt8VFld8yytAsmmdMKn/VFTfHhkuHr2DqM/05Te5GvqYmtPrSFF+8VlOQWlI3TNkHKFu5Tunhs8JInNU37JVp5S9HfuXENWW3/t3YtOm///0PE/wcTs5sMj+D3AQAAAABJRU5ErkJggg==;" vertex="1" parent="wxIHJAAadrwlMYFSto1u-67">
          <mxGeometry x="11" y="17" width="165" height="120.58" as="geometry" />
        </mxCell>
      </root>
    </mxGraphModel>
  </diagram>
</mxfile>
